<?xml version="1.0" encoding="utf-8"?>
<!-- Generator: Adobe Illustrator 23.0.6, SVG Export Plug-In . SVG Version: 6.00 Build 0)  -->
<!DOCTYPE svg PUBLIC "-//W3C//DTD SVG 1.1//EN" "http://www.w3.org/Graphics/SVG/1.1/DTD/svg11.dtd" [
	<!ENTITY ns_extend "http://ns.adobe.com/Extensibility/1.0/">
	<!ENTITY ns_ai "http://ns.adobe.com/AdobeIllustrator/10.0/">
	<!ENTITY ns_graphs "http://ns.adobe.com/Graphs/1.0/">
	<!ENTITY ns_vars "http://ns.adobe.com/Variables/1.0/">
	<!ENTITY ns_imrep "http://ns.adobe.com/ImageReplacement/1.0/">
	<!ENTITY ns_sfw "http://ns.adobe.com/SaveForWeb/1.0/">
	<!ENTITY ns_custom "http://ns.adobe.com/GenericCustomNamespace/1.0/">
	<!ENTITY ns_adobe_xpath "http://ns.adobe.com/XPath/1.0/">
]>
<svg version="1.1" id="Layer_1" xmlns:x="&ns_extend;" xmlns:i="&ns_ai;" xmlns:graph="&ns_graphs;"
	 xmlns="http://www.w3.org/2000/svg" xmlns:xlink="http://www.w3.org/1999/xlink" x="0px" y="0px" width="539.5px" height="157.9px"
	 viewBox="0 0 539.5 157.9" style="enable-background:new 0 0 539.5 157.9;" xml:space="preserve">
<style type="text/css">
	.st0{fill:#FF9416;}
	.st1{fill:#FFFFFF;}
</style>
<metadata>
	<sfw  xmlns="&ns_sfw;">
		<slices></slices>
		<sliceSourceBounds  bottomLeftOrigin="true" height="158" width="539.5" x="0" y="-0.1"></sliceSourceBounds>
	</sfw>
</metadata>
<g>
	<g>
		<g>
			<path class="st0" d="M0,97.1c0-0.2,0-0.4,0-0.6c0-1.9,0-3.8,0-5.6c0-0.1,0-0.2,0-0.4c0-0.2,0.1-0.3,0.3-0.3s0.4,0,0.5,0
				c4.5,0,9.1,0,13.6,0c0.9,0,0.9,0,0.9-0.9c0-2.7,0-5.3,0-8c0-0.2,0-0.3,0-0.5c0-0.3,0.1-0.4,0.4-0.4c0.1,0,0.2,0,0.2,0
				c2.1,0,4.1,0,6.2,0c0.6,0,0.6,0,0.6,0.7c0,2.7,0,5.4,0,8.1c0,0.2,0,0.4,0,0.5c0,0.4,0.1,0.5,0.5,0.5c0.5,0,1.1,0,1.6,0
				c1.6,0,3.2,0,4.9,0c0.2,0,0.3,0,0.5,0c0.3,0,0.5-0.1,0.4-0.4c0-0.2,0-0.3,0-0.5c0-2.7,0-5.4,0-8.1c0-0.2,0-0.3,0-0.5
				s0.1-0.3,0.3-0.3c0.1,0,0.3,0,0.4,0c2,0,4,0,6.1,0c0.1,0,0.3,0,0.4,0c0.2,0,0.3,0.1,0.3,0.3c0,0.2,0,0.3,0,0.5c0,2.8,0,5.5,0,8.3
				c0,0.2,0,0.5,0,0.7c0.2,0,0.3,0.1,0.4,0.1c2.1,0.1,4.2,0.5,6.3,0.9c1.4,0.3,2.6,0.8,3.9,1.3c2.1,1,3.9,2.4,5,4.5
				c0.7,1.3,1.2,2.7,1.3,4.2c0,0.7,0.2,1.4,0.2,2.1c0,0.8-0.1,1.5-0.1,2.3c-0.1,1.4-0.5,2.6-1.1,3.9c-0.7,1.4-1.6,2.6-2.7,3.7
				c-1.3,1.2-2.9,2.1-4.5,2.9c-0.8,0.3-1.6,0.6-2.3,0.9c-0.2,0.1-0.4,0.2-0.6,0.3v0.1c0.2,0.1,0.4,0.1,0.5,0.2c1,0.3,2,0.5,3,0.8
				c1.2,0.3,2.3,0.8,3.4,1.4c1.8,1,3.3,2.2,4.4,3.9c0.8,1.2,1.4,2.4,1.8,3.8c0.3,0.9,0.5,1.9,0.5,2.8c0.1,1.4,0.1,2.9,0,4.3
				c0,0.9-0.2,1.7-0.4,2.6c-0.2,0.7-0.5,1.5-0.8,2.2c-0.4,0.9-0.9,1.8-1.5,2.5c-1,1.2-2.1,2.2-3.4,2.9c-1.5,0.9-3.2,1.5-4.9,1.9
				c-1.1,0.3-2.2,0.5-3.3,0.7c-1.5,0.2-3,0.4-4.5,0.5c-0.5,0.1-0.6,0.1-0.6,0.7c0,2.9,0,5.7,0,8.6c0,0.8,0,0.8-0.8,0.8c-2,0-4,0-6,0
				c-0.1,0-0.3,0-0.4,0c-0.2,0-0.3-0.1-0.3-0.3s0-0.3,0-0.5c0-2.7,0-5.5,0-8.2c0-0.2,0-0.3,0-0.5c0-0.3-0.1-0.4-0.4-0.4
				c-0.1,0-0.3,0-0.4,0c-2.1,0-4.2,0-6.2,0c-0.1,0-0.2,0-0.3,0c-0.4,0-0.5,0.1-0.5,0.5c0,0.2,0,0.3,0,0.5c0,2.7,0,5.3,0,8
				c0,0.2,0,0.3,0,0.5c0,0.3-0.2,0.4-0.5,0.4c-0.1,0-0.2,0-0.2,0c-2,0-4,0-6.1,0c-0.1,0-0.2,0-0.3,0c-0.3,0-0.4-0.1-0.4-0.4
				c0-0.2,0-0.3,0-0.5c0-2.7,0-5.3,0-8c0-0.2,0-0.3,0-0.5c0-0.4-0.1-0.5-0.6-0.5c-0.2,0-0.4,0-0.5,0c-4.5,0-8.9,0-13.4,0
				C0,148,0,148,0,147.2c0-1.8,0-3.5,0-5.3c0-0.7,0-0.7,0.7-0.7c1,0,2,0,3,0c1.1,0,2.2-0.1,3.2-0.4c0.9-0.3,1.3-0.8,1.5-1.7
				c0.2-1,0.3-1.9,0.3-2.9c0-11.5,0-23,0-34.5c0-0.9-0.2-1.8-0.4-2.7c-0.1-0.6-0.5-1-1.1-1.3c-0.9-0.3-1.8-0.5-2.7-0.5
				c-1.4,0-2.9,0-4.3,0C0.3,97.1,0.2,97.1,0,97.1z M22.8,131.4c0,3,0,5.9,0,8.9c0,0.2,0,0.4,0,0.5c0,0.3,0.2,0.4,0.5,0.4
				c0.2,0,0.3,0,0.5,0c1.7,0,3.5-0.1,5.2-0.1c1.8,0,3.6-0.1,5.4-0.4c1.3-0.2,2.5-0.5,3.7-1c1.8-0.7,3.1-2,3.9-3.7
				c0.7-1.4,0.9-3,1-4.5c0.1-1.6-0.2-3.3-0.8-4.8c-0.4-1-1-1.9-1.8-2.6c-0.9-0.9-2.1-1.3-3.3-1.7c-2.1-0.7-4.3-0.8-6.4-0.9
				c-2.4-0.1-4.8,0-7.2,0c-0.7,0-0.7,0-0.7,0.7c0,0.2,0,0.3,0,0.5C22.8,125.6,22.8,128.5,22.8,131.4z M22.8,105.8c0,2.7,0,5.4,0,8.1
				c0,0.6,0.1,0.7,0.7,0.7c2.3,0,4.6-0.1,6.9-0.1c1,0,1.9-0.1,2.9-0.3c1-0.2,1.9-0.5,2.8-0.8c1.1-0.4,2-1.1,2.7-2
				c1-1.3,1.4-2.9,1.5-4.5c0.1-1.4,0-2.7-0.3-4c-0.2-1-0.7-1.8-1.3-2.6c-0.3-0.4-0.8-0.8-1.3-1.1c-1-0.6-2.2-1.1-3.4-1.3
				c-1.3-0.2-2.5-0.4-3.8-0.5c-2.2-0.1-4.5-0.1-6.7-0.1c-0.7,0-0.7,0.1-0.7,0.8C22.8,100.5,22.8,103.2,22.8,105.8z"/>
		</g>
	</g>
	<g>
		<g>
			<path class="st0" d="M105.1,16.7c0-0.2,0-0.4,0-0.6c0-1.9,0-3.8,0-5.6c0-0.1,0-0.2,0-0.4s0.1-0.3,0.3-0.3c0.2,0,0.4,0,0.5,0
				c4.5,0,9.1,0,13.6,0c0.9,0,0.9,0,0.9-0.9c0-2.7,0-5.3,0-8c0-0.2,0-0.3,0-0.5c0-0.3,0.1-0.4,0.4-0.4c0.1,0,0.2,0,0.2,0
				c2.1,0,4.1,0,6.2,0c0.6,0,0.6,0,0.6,0.7c0,2.7,0,5.4,0,8.1c0,0.2,0,0.4,0,0.5c0,0.4,0.1,0.5,0.5,0.5c0.5,0,1.1,0,1.6,0
				c1.6,0,3.2,0,4.9,0c0.2,0,0.3,0,0.5,0c0.3,0,0.5-0.1,0.4-0.4c0-0.2,0-0.3,0-0.5c0-2.7,0-5.4,0-8.1c0-0.2,0-0.3,0-0.5
				S135.8,0,136,0c0.1,0,0.3,0,0.4,0c2,0,4,0,6.1,0c0.1,0,0.3,0,0.4,0c0.2,0,0.3,0.1,0.3,0.3s0,0.3,0,0.5c0,2.8,0,5.5,0,8.3
				c0,0.2,0,0.5,0,0.7c0.2,0,0.3,0.1,0.4,0.1c2.1,0.1,4.2,0.5,6.3,0.9c1.4,0.3,2.6,0.8,3.9,1.3c2.1,1,3.9,2.4,5,4.5
				c0.7,1.3,1.2,2.7,1.3,4.2c0,0.7,0.2,1.4,0.2,2.1c0,0.8-0.1,1.5-0.1,2.3c-0.1,1.4-0.5,2.6-1.1,3.9c-0.7,1.4-1.6,2.6-2.7,3.7
				c-1.3,1.2-2.9,2.1-4.5,2.9c-0.8,0.3-1.6,0.6-2.3,0.9c-0.2,0.1-0.4,0.2-0.6,0.3V37c0.2,0.1,0.4,0.1,0.5,0.2c1,0.3,2,0.5,3,0.8
				c1.2,0.3,2.3,0.8,3.4,1.4c1.8,1,3.3,2.2,4.4,3.9c0.8,1.2,1.4,2.4,1.8,3.8c0.3,0.9,0.5,1.9,0.5,2.8c0.1,1.4,0.1,2.9,0,4.3
				c0,0.9-0.2,1.7-0.4,2.6c-0.2,0.7-0.5,1.5-0.8,2.2c-0.4,0.9-0.9,1.8-1.5,2.5c-1,1.2-2.1,2.2-3.4,2.9c-1.5,0.9-3.2,1.5-4.9,1.9
				c-1.1,0.3-2.2,0.5-3.3,0.7c-1.5,0.2-3,0.4-4.5,0.5c-0.5,0.1-0.6,0.1-0.6,0.7c0,2.9,0,5.7,0,8.6c0,0.8,0,0.8-0.8,0.8c-2,0-4,0-6,0
				c-0.1,0-0.3,0-0.4,0c-0.2,0-0.3-0.1-0.3-0.3c0-0.2,0-0.3,0-0.5c0-2.7,0-5.5,0-8.2c0-0.2,0-0.3,0-0.5c0-0.3-0.1-0.4-0.4-0.4
				c-0.1,0-0.3,0-0.4,0c-2.1,0-4.2,0-6.2,0c-0.1,0-0.2,0-0.3,0c-0.4,0-0.5,0.1-0.5,0.5c0,0.2,0,0.3,0,0.5c0,2.7,0,5.3,0,8
				c0,0.2,0,0.3,0,0.5c0,0.3-0.2,0.4-0.5,0.4c-0.1,0-0.2,0-0.2,0c-2,0-4,0-6.1,0c-0.1,0-0.2,0-0.3,0c-0.3,0-0.4-0.1-0.4-0.4
				c0-0.2,0-0.3,0-0.5c0-2.7,0-5.3,0-8c0-0.2,0-0.3,0-0.5c0-0.4-0.1-0.5-0.6-0.5c-0.2,0-0.4,0-0.5,0c-4.5,0-8.9,0-13.4,0
				c-0.9,0-0.9,0-0.9-0.8c0-1.8,0-3.5,0-5.3c0-0.7,0-0.7,0.7-0.7c1,0,2,0,3,0c1.1,0,2.2-0.1,3.2-0.4c0.9-0.3,1.3-0.8,1.5-1.7
				c0.2-1,0.3-1.9,0.3-2.9c0-11.5,0-23,0-34.5c0-0.9-0.2-1.8-0.4-2.7c-0.1-0.6-0.5-1-1.1-1.3c-0.9-0.3-1.8-0.5-2.7-0.5
				c-1.4,0-2.9,0-4.3,0C105.3,16.7,105.2,16.7,105.1,16.7z M127.9,51c0,3,0,5.9,0,8.9c0,0.2,0,0.4,0,0.5c0,0.3,0.2,0.4,0.5,0.4
				c0.2,0,0.3,0,0.5,0c1.7,0,3.5-0.1,5.2-0.1c1.8,0,3.6-0.1,5.4-0.4c1.3-0.2,2.5-0.5,3.7-1c1.8-0.7,3.1-2,3.9-3.7
				c0.7-1.4,0.9-3,1-4.5c0.1-1.6-0.2-3.3-0.8-4.8c-0.4-1-1-1.9-1.8-2.6c-0.9-0.9-2.1-1.3-3.3-1.7c-2.1-0.7-4.3-0.8-6.4-0.9
				c-2.4-0.1-4.8,0-7.2,0c-0.7,0-0.7,0-0.7,0.7c0,0.2,0,0.3,0,0.5C127.9,45.2,127.9,48.1,127.9,51z M127.9,25.4c0,2.7,0,5.4,0,8.1
				c0,0.6,0.1,0.7,0.7,0.7c2.3,0,4.6-0.1,6.9-0.1c1,0,1.9-0.1,2.9-0.3s1.9-0.5,2.8-0.8c1.1-0.4,2-1.1,2.7-2c1-1.3,1.4-2.9,1.5-4.5
				c0.1-1.4,0-2.7-0.3-4c-0.2-1-0.7-1.8-1.3-2.6c-0.3-0.4-0.8-0.8-1.3-1.1c-1-0.6-2.2-1.1-3.4-1.3c-1.3-0.2-2.5-0.4-3.8-0.5
				c-2.2-0.1-4.5-0.1-6.7-0.1c-0.7,0-0.7,0.1-0.7,0.8C127.9,20.1,127.9,22.8,127.9,25.4z"/>
		</g>
	</g>
	<path class="st1" d="M184.2,67.6h-12V9.7h12V67.6z"/>
	<path class="st1" d="M237.6,9.7V20h-17.3v47.7h-12.2V20h-17.4V9.7H237.6z"/>
	<path class="st1" d="M250.2,15.8c4.7-4.8,10.6-7.1,17.8-7.1c9.6,0,16.7,3.2,21.1,9.6c2.5,3.6,3.8,7.2,4,10.8H281
		c-0.8-2.8-1.8-4.9-3-6.3c-2.2-2.5-5.3-3.8-9.6-3.8c-4.3,0-7.7,1.8-10.2,5.3s-3.7,8.6-3.7,15.1s1.3,11.4,3.9,14.6
		c2.6,3.2,6,4.9,10,4.9c4.1,0,7.3-1.4,9.5-4.2c1.2-1.5,2.2-3.7,3-6.7h12c-1,6.3-3.7,11.4-7.9,15.4c-4.3,4-9.7,5.9-16.4,5.9
		c-8.2,0-14.7-2.7-19.4-8c-4.7-5.4-7.1-12.7-7.1-22.1C242.2,29,244.8,21.2,250.2,15.8z"/>
	<path class="st1" d="M347.4,62.5c-4.4,4.5-10.7,6.8-19,6.8s-14.6-2.3-19-6.8c-5.9-5.5-8.8-13.5-8.8-23.9c0-10.6,2.9-18.6,8.8-23.9
		c4.4-4.5,10.7-6.8,19-6.8s14.6,2.3,19,6.8c5.8,5.3,8.8,13.3,8.8,23.9C356.1,49,353.2,57,347.4,62.5z M339.8,53.7
		c2.8-3.5,4.2-8.6,4.2-15.1s-1.4-11.5-4.2-15.1c-2.8-3.5-6.6-5.3-11.4-5.3s-8.6,1.8-11.5,5.3s-4.3,8.6-4.3,15.1s1.4,11.5,4.3,15.1
		c2.9,3.5,6.7,5.3,11.5,5.3C333.2,59,337,57.2,339.8,53.7z"/>
	<path class="st1" d="M376.4,67.6h-12V9.7h12V67.6z"/>
	<path class="st1" d="M387.5,9.7h12.7l23,40.4V9.7h11.3v57.9h-12.1l-23.6-41.1v41.1h-11.3V9.7z"/>
	<path class="st1" d="M105.3,91.7c2.1,0.9,3.9,2.3,5.4,4c1.2,1.5,2.2,3.1,2.9,4.9c0.7,1.8,1.1,3.8,1.1,6.1c0,2.7-0.7,5.5-2.1,8.1
		c-1.4,2.7-3.7,4.5-6.9,5.6c2.7,1.1,4.6,2.6,5.7,4.6s1.7,5,1.7,9.1v3.9c0,2.6,0.1,4.4,0.3,5.4c0.3,1.5,1.1,2.6,2.2,3.3v1.5h-13.4
		c-0.4-1.3-0.6-2.3-0.8-3.1c-0.3-1.6-0.5-3.3-0.5-5l-0.1-5.4c0-3.7-0.7-6.2-1.9-7.4c-1.2-1.2-3.5-1.8-6.9-1.8H80.3v22.7H68.4v-58
		h27.7C100.1,90.3,103.1,90.8,105.3,91.7z M80.3,100.2v15.6h13c2.6,0,4.5-0.3,5.8-0.9c2.3-1.1,3.4-3.3,3.4-6.5
		c0-3.5-1.1-5.9-3.3-7.1c-1.2-0.7-3.1-1-5.6-1L80.3,100.2L80.3,100.2z"/>
	<path class="st1" d="M169.1,100.4h-30.6v12.3h28.1v10.1h-28.1v14.9h32.1v10.4h-43.9V90.2h42.5v10.2H169.1z"/>
	<path class="st1" d="M196.5,90.2h13.7l20.5,57.9h-13.1l-3.8-11.9h-21.3l-3.9,11.9h-12.7L196.5,90.2z M195.7,126.2h14.8l-7.3-22.8
		L195.7,126.2z"/>
	<path class="st1" d="M238.2,90.2h11.9V114l22.4-23.9h15.6L264.4,114l25,34.1h-15.6L256,122.8l-5.8,5.9v19.4h-11.9L238.2,90.2
		L238.2,90.2z"/>
	<path class="st1" d="M330,91.4c4.1,1.3,7.4,3.8,9.9,7.3c2,2.9,3.4,6,4.1,9.3c0.7,3.4,1.1,6.5,1.1,9.6c0,7.7-1.5,14.2-4.6,19.6
		c-4.2,7.2-10.7,10.8-19.4,10.8h-25V90.2h25C324.7,90.2,327.7,90.6,330,91.4z M307.9,100.2V138H319c5.7,0,9.7-2.8,12-8.4
		c1.2-3.1,1.8-6.8,1.8-11c0-5.9-0.9-10.4-2.8-13.6c-1.8-3.2-5.5-4.7-11-4.7h-11.1V100.2z"/>
	<path class="st1" d="M398.8,142.9c-4.4,4.5-10.7,6.8-19,6.8s-14.6-2.3-19-6.8c-5.9-5.5-8.8-13.5-8.8-23.9c0-10.6,2.9-18.6,8.8-23.9
		c4.4-4.5,10.7-6.8,19-6.8s14.6,2.3,19,6.8c5.8,5.3,8.8,13.3,8.8,23.9C407.6,129.4,404.6,137.4,398.8,142.9z M391.2,134.1
		c2.8-3.5,4.2-8.6,4.2-15.1s-1.4-11.5-4.2-15.1c-2.8-3.5-6.6-5.3-11.4-5.3s-8.6,1.8-11.5,5.3s-4.3,8.6-4.3,15.1s1.4,11.5,4.3,15.1
		c2.9,3.5,6.7,5.3,11.5,5.3C384.6,139.4,388.4,137.7,391.2,134.1z"/>
	<path class="st1" d="M424.7,90.2l7.6,33.2l1.7,9.2l1.7-9l6.5-33.3H455l6.9,33.2l1.8,9.2l1.8-8.9l7.7-33.5h12.3l-16.3,57.9h-11.6
		l-7-33.9l-2-11.2l-2,11.2l-7,33.9h-11.2L412,90.3L424.7,90.2L424.7,90.2z"/>
	<path class="st1" d="M492.5,90.2h12.7l23,40.4V90.2h11.3v57.9h-12.1L503.8,107v41.1h-11.3V90.2z"/>
</g>
</svg>
