<svg width="206" height="63" viewBox="0 0 206 63" fill="none" xmlns="http://www.w3.org/2000/svg">
<path d="M39.4037 1.43215C39.3771 1.42418 39.3479 1.41621 39.3187 1.4109C36.8135 0.789243 34.3056 0.491699 31.8376 0.491699H31.827C17.9168 0.497012 5.26853 9.93074 1.76973 24.0375C-2.35072 40.6548 7.77905 57.4687 24.3963 61.5891C26.9015 62.2108 29.4121 62.5083 31.8827 62.5083C45.7956 62.5083 58.4491 53.0746 61.9479 38.9625C66.0604 22.3771 55.9785 5.59245 39.4037 1.43215ZM59.5145 38.3594C56.3531 51.1007 44.9906 60.0004 31.8827 60.0004C29.5768 60.0004 27.2602 59.7162 24.9994 59.1556C17.6113 57.3252 11.3815 52.7266 7.45228 46.2072C3.52311 39.6878 2.37013 32.0287 4.20321 24.6406C7.36196 11.902 18.7377 3.00488 31.8429 2.99957C34.1462 2.99957 36.4575 3.28383 38.7369 3.84969L38.7661 3.85766L38.7953 3.86563C53.9913 7.67791 63.2842 23.1528 59.5145 38.3594Z" fill="url(#paint0_linear_6034_466)"/>
<path d="M38.3198 27.3474C37.4298 30.91 31.9997 29.0822 30.2356 28.6465L31.7924 22.414C33.5272 22.8417 39.2098 23.66 38.2906 27.3447H38.3198V27.3474ZM37.3501 37.4187C36.3884 41.3001 29.8531 39.1987 27.7357 38.6727L29.4546 31.792C31.5719 32.3259 38.357 33.3673 37.3501 37.4187ZM44.4726 27.4032C45.0331 23.6095 42.148 21.5719 38.2401 20.2196L39.5233 15.0817L36.3619 14.298L35.1159 19.3004C34.2976 19.0959 33.4502 18.8993 32.6133 18.7133L33.8593 13.6577L30.7351 12.874L29.4519 18.012L27.4568 17.5683L23.1398 16.4897L22.3109 19.8291C22.3109 19.8291 24.4681 20.3551 24.5823 20.3976C25.281 20.5384 26.1099 21.2903 26.0435 22.1776L22.534 36.2445C22.3428 36.8449 21.7025 37.1743 21.1021 36.983C21.0357 36.9644 18.8227 36.4225 18.8227 36.4225L17.2739 39.985L21.3412 40.9919L23.5675 41.571L22.2763 46.7621L25.4006 47.5458L26.6837 42.4079C27.5259 42.639 28.3547 42.8515 29.1677 43.0481L27.9031 48.202L31.0273 48.9751L32.3184 43.7947C37.6609 44.8015 41.6565 44.4004 43.3488 39.5759C44.7117 35.6946 43.2771 33.4603 40.4743 31.9992C42.5226 31.5263 44.0369 30.2166 44.4726 27.4032Z" fill="white"/>
<path d="M90.4909 22.0812C92.4302 22.0812 94.1065 22.4239 95.5199 23.1119C96.9332 23.8 98.1048 24.7272 99.0346 25.8988C99.9644 27.0703 100.65 28.4438 101.096 30.0192C101.54 31.5946 101.763 33.2922 101.763 35.1093C101.763 37.8961 101.248 40.5342 100.217 43.0181C99.186 45.5021 97.7833 47.6646 96.006 49.503C94.2287 51.3414 92.1273 52.7972 89.7018 53.8652C87.279 54.9358 84.6516 55.4725 81.8222 55.4725C81.4583 55.4725 80.8233 55.4618 79.9121 55.4432C79.0035 55.422 77.9621 55.3317 76.7906 55.1696C75.619 55.0076 74.3757 54.7658 73.0633 54.4417C71.7509 54.1202 70.5076 53.6739 69.336 53.1081L79.8191 9.05035L89.213 7.59717L85.4539 23.2341C86.2615 22.8702 87.0691 22.5886 87.8794 22.3867C88.6923 22.1848 89.561 22.0812 90.4909 22.0812ZM82.6139 48.0206C84.0272 48.0206 85.3609 47.6779 86.6148 46.9898C87.8661 46.3044 88.9473 45.3852 89.8559 44.2322C90.7645 43.0819 91.4818 41.7775 92.0078 40.3243C92.5338 38.8685 92.7968 37.3542 92.7968 35.7788C92.7968 33.8395 92.4727 32.3252 91.8271 31.2333C91.1816 30.1441 89.9887 29.5968 88.2513 29.5968C87.6854 29.5968 86.9496 29.6978 86.0383 29.8997C85.1298 30.1016 84.3115 30.5266 83.5836 31.1722L79.5827 47.7788C79.8244 47.8187 80.037 47.8585 80.2176 47.901C80.3983 47.9409 80.5896 47.9728 80.7941 47.9914C80.996 48.0126 81.2378 48.0206 81.522 48.0206C81.8036 48.0206 82.1676 48.0206 82.6139 48.0206Z" fill="white"/>
<path d="M116.186 55.2307C113.317 55.2307 111.064 54.8561 109.43 54.1096C107.794 53.3631 106.622 52.343 105.915 51.0492C105.209 49.7554 104.863 48.273 104.884 46.594C104.906 44.9176 105.137 43.1297 105.581 41.2302L113.277 9.05035L122.671 7.59717L114.246 42.5028C114.084 43.2307 113.994 43.8975 113.973 44.5032C113.952 45.1089 114.063 45.6456 114.308 46.1078C114.549 46.5727 114.964 46.9473 115.551 47.2289C116.135 47.5105 116.954 47.6938 118.006 47.7735L116.186 55.2307Z" fill="white"/>
<path d="M129.822 54.6256H120.854L128.428 22.7485H137.458L129.822 54.6256Z" fill="white"/>
<path d="M144.123 24.2041C144.809 24.0021 145.568 23.771 146.395 23.508C147.223 23.245 148.153 23.0032 149.181 22.7801C150.212 22.5596 151.362 22.3763 152.638 22.2355C153.91 22.0947 155.355 22.0229 156.971 22.0229C161.737 22.0229 165.01 23.3964 166.79 26.1434C168.567 28.8904 168.87 32.6495 167.698 37.4155L163.578 54.6279H154.548L158.549 37.7795C158.79 36.7301 158.982 35.71 159.125 34.719C159.266 33.7281 159.255 32.8594 159.096 32.1129C158.934 31.3664 158.559 30.7606 157.975 30.2957C157.388 29.8308 156.49 29.5997 155.278 29.5997C154.107 29.5997 152.914 29.7219 151.702 29.9636L145.823 54.6279H136.791L144.123 24.2041Z" fill="white"/>
<path d="M182.605 34.2648C185.027 32.3255 187.309 30.3463 189.453 28.3246C191.595 26.3056 193.433 24.4459 194.969 22.7483H205.149C202.885 25.2535 200.532 27.7083 198.087 30.1125C195.643 32.5168 192.846 35.0725 189.692 37.7796C190.54 38.8316 191.398 40.043 192.269 41.4165C193.138 42.79 193.967 44.2246 194.753 45.7203C195.542 47.216 196.268 48.7303 196.934 50.2658C197.601 51.8013 198.157 53.2572 198.6 54.6306H188.539C188.176 53.5813 187.721 52.4283 187.177 51.177C186.632 49.9257 186.026 48.6824 185.359 47.4498C184.693 46.2171 183.997 45.0163 183.269 43.8447C182.541 42.6731 181.816 41.6237 181.088 40.6939L177.695 54.6333H168.726L179.634 9.05865L189.028 7.60547L182.605 34.2648Z" fill="white"/>
<path d="M140.638 13.1237C140.638 13.9632 140.478 14.7442 140.157 15.4721C139.838 16.2001 139.4 16.835 138.85 17.3743C138.297 17.9136 137.651 18.344 136.913 18.6654C136.174 18.9842 135.385 19.1463 134.549 19.1463C133.709 19.1463 132.923 18.9869 132.184 18.6654C131.446 18.3466 130.805 17.9163 130.266 17.3743C129.727 16.835 129.296 16.2001 128.975 15.4721C128.656 14.7442 128.494 13.9632 128.494 13.1237C128.494 12.3081 128.653 11.5297 128.975 10.7911C129.294 10.0526 129.724 9.41235 130.266 8.87305C130.805 8.33376 131.446 7.90338 132.184 7.58193C132.923 7.26313 133.712 7.10107 134.549 7.10107C135.385 7.10107 136.174 7.26047 136.913 7.58193C137.651 7.90338 138.297 8.3311 138.85 8.87305C139.4 9.41235 139.835 10.0526 140.157 10.7911C140.478 11.5297 140.638 12.3054 140.638 13.1237Z" fill="white"/>
<defs>
<linearGradient id="paint0_linear_6034_466" x1="12.7355" y1="55.9099" x2="50.9806" y2="7.09005" gradientUnits="userSpaceOnUse">
<stop stop-color="#FEBE13"/>
<stop offset="0.5" stop-color="#EF8B22"/>
<stop offset="1" stop-color="#F15822"/>
</linearGradient>
</defs>
</svg>
