<?xml version="1.0" encoding="utf-8"?>
<!-- Generator: Adobe Illustrator 23.0.6, SVG Export Plug-In . SVG Version: 6.00 Build 0)  -->
<!DOCTYPE svg PUBLIC "-//W3C//DTD SVG 1.1//EN" "http://www.w3.org/Graphics/SVG/1.1/DTD/svg11.dtd" [
	<!ENTITY ns_extend "http://ns.adobe.com/Extensibility/1.0/">
	<!ENTITY ns_ai "http://ns.adobe.com/AdobeIllustrator/10.0/">
	<!ENTITY ns_graphs "http://ns.adobe.com/Graphs/1.0/">
	<!ENTITY ns_vars "http://ns.adobe.com/Variables/1.0/">
	<!ENTITY ns_imrep "http://ns.adobe.com/ImageReplacement/1.0/">
	<!ENTITY ns_sfw "http://ns.adobe.com/SaveForWeb/1.0/">
	<!ENTITY ns_custom "http://ns.adobe.com/GenericCustomNamespace/1.0/">
	<!ENTITY ns_adobe_xpath "http://ns.adobe.com/XPath/1.0/">
]>
<svg version="1.1" id="Layer_1" xmlns:x="&ns_extend;" xmlns:i="&ns_ai;" xmlns:graph="&ns_graphs;"
	 xmlns="http://www.w3.org/2000/svg" xmlns:xlink="http://www.w3.org/1999/xlink" x="0px" y="0px" width="202.2px" height="84.9px"
	 viewBox="0 0 202.2 84.9" style="enable-background:new 0 0 202.2 84.9;" xml:space="preserve">
<style type="text/css">
	.st0{clip-path:url(#SVGID_2_);}
	.st1{fill:#FFFFFF;}
</style>
<metadata>
	<sfw  xmlns="&ns_sfw;">
		<slices></slices>
		<sliceSourceBounds  bottomLeftOrigin="true" height="84.4" width="200" x="-68" y="-28.7"></sliceSourceBounds>
	</sfw>
</metadata>
<g>
	<defs>
		<rect id="SVGID_1_" x="2.1" y="1" width="200" height="84.4"/>
	</defs>
	<clipPath id="SVGID_2_">
		<use xlink:href="#SVGID_1_"  style="overflow:visible;"/>
	</clipPath>
	<g class="st0">
		<path class="st1" d="M88,28.6H77.2V35h-3.9v7.8h3.9v12.5c0,6.9,3.4,9.4,11,9.4c2.3,0,3.8-0.2,5-0.4v-7.5c-0.6,0.1-1,0.1-1.9,0.1
			c-2.2,0-3.3-1-3.3-3.3V42.8h5.1V35H88L88,28.6L88,28.6z"/>
		<path class="st1" d="M107.8,40.2h-0.2V35H96.7v29.1h10.8V49.4c0-4,2.1-6.1,6.2-6.1c1.1,0,2.2,0.2,3.2,0.6v-9.1
			c-0.8-0.3-1.7-0.4-2.6-0.4C110.8,34.4,108.5,36.4,107.8,40.2z"/>
		<path class="st1" d="M138.9,51.3c0,2.7-1.6,4.7-4.1,4.7c-2.7,0-4.1-1.8-4.1-4.7V35h-10.8v18.7c0,7,3.6,11,10,11
			c4.4,0,7.4-2.1,8.8-6h0.2V64h10.8V34.9H139L138.9,51.3L138.9,51.3z"/>
		<path class="st1" d="M172,46.5l-5.3-1c-2.7-0.5-3.4-1.1-3.4-2.1v0c0-1.2,1.3-2,3.3-2c2.3,0,3.6,1.3,3.8,2.7l0,0.2h9.9v-0.2
			c0-5.3-4.6-9.8-13.7-9.8c-8.5,0-13.7,3.6-13.7,9.7v0c0,4.5,3.1,7.6,8.9,8.6l5.3,1c2.4,0.4,3.3,1.1,3.3,2.1v0
			c0,1.2-1.3,1.9-3.4,1.9c-2.4,0-3.7-1-4.2-2.7l-0.1-0.2h-10.5l0,0.2c0.7,5.8,5.5,9.7,14.7,9.7c8.5,0,14.1-3.9,14.1-10.2v0
			C181.2,50.1,178.3,47.7,172,46.5z"/>
		<path class="st1" d="M202.1,42.8V35h-5.1v-6.4h-10.8V35h-3.9v7.8h3.9v12.5c0,6.9,3.4,9.4,11,9.4c2.3,0,3.8-0.2,5-0.4v-7.5
			c-0.6,0.1-1,0.1-1.9,0.1c-2.2,0-3.3-1-3.3-3.3V42.8H202.1z"/>
		<path class="st1" d="M60.6,44.3c-2.5-1.5-5.6-2.4-9.1-2.7v-0.2c2.8-0.4,5.2-1.4,7.3-2.8c2.1-1.4,3.7-3.2,4.9-5.3
			c1.2-2.1,1.8-4.5,1.8-7.2V26c0-3.5-0.9-6.5-2.7-9.1c-1.8-2.6-4.4-4.5-7.7-5.9C51.9,9.7,47.9,9,43.3,9h-5.9V1H23.6v8H2.2v68.8h21.4
			v7.6h13.8v-7.6h6.5c5.1,0,9.6-0.8,13.3-2.3c3.7-1.6,6.6-3.8,8.6-6.7c2-2.9,3-6.4,3-10.4v-0.1c0-3-0.7-5.7-2.2-8.1
			C65.2,47.7,63.2,45.8,60.6,44.3z M38.6,21.1c3.1,0,5.5,0.7,7.3,2c1.8,1.4,2.6,3.3,2.6,5.8V29c0,2.6-1,4.7-3,6.1
			c-2,1.5-4.8,2.2-8.5,2.2H19.4V21.1H38.6z M51.2,56.9c0,2.8-1,5-3,6.5c-2,1.5-4.9,2.2-8.6,2.2H19.4V48.2h19.5c2.7,0,4.9,0.3,6.7,1
			c1.8,0.7,3.2,1.6,4.1,2.9C50.7,53.4,51.1,55,51.2,56.9L51.2,56.9L51.2,56.9z"/>
	</g>
</g>
</svg>
