<svg width="359" height="167" viewBox="0 0 359 167" fill="none" xmlns="http://www.w3.org/2000/svg">
<path d="M358.543 166.077C352.746 165.481 347.748 165.012 342.739 164.469C334.81 163.679 326.878 162.906 318.941 162.145C316.128 161.879 313.304 161.676 310.48 161.517C303.156 161.104 295.834 160.706 288.516 160.323C276.303 159.715 264.08 159.162 251.867 158.522C248.361 158.341 244.854 157.968 240.976 157.648C242.467 156.358 243.885 155.176 245.238 153.919C246.24 153.044 247.156 152.077 247.977 151.031C248.237 150.741 248.421 150.39 248.513 150.011C248.605 149.632 248.6 149.236 248.501 148.859C248.402 148.482 248.21 148.135 247.944 147.85C247.678 147.565 247.345 147.351 246.975 147.226C244.897 146.267 242.66 145.095 240.475 145.095C231.384 144.851 222.283 144.924 213.182 144.999C209.474 144.999 205.722 145.212 202.056 145.607C193.861 146.48 185.624 147.151 177.545 148.569C163.297 151.063 149.134 154.036 134.917 156.828C133.961 157.106 132.953 157.15 131.976 156.956C133.042 155.965 134.107 154.952 135.173 153.972C136.545 152.885 137.848 151.714 139.073 150.466C141.205 147.982 140.608 145.607 137.582 144.36C136.387 143.752 135.082 143.389 133.745 143.294C125.635 143.561 117.515 143.806 109.415 144.424C102.456 144.956 95.4968 145.745 88.6024 146.854C80.3112 148.174 72.0731 149.795 63.857 151.553C50.5779 154.394 37.3171 157.354 24.0741 160.43C16.4864 162.188 8.97312 164.266 1.41734 166.184C1.17224 166.248 0.873874 166.109 0 165.949C35.8926 147.375 51.0362 116.153 55.7572 78.1951H68.1192C69.8243 83.342 71.5294 88.5104 73.2776 93.668C73.3836 93.9877 73.8212 94.2115 74.7053 95.032C76.08 90.7161 77.4867 86.7733 78.584 82.756C79.6824 78.7386 79.5542 78.632 83.9126 78.632C92.2038 78.632 100.485 78.632 108.776 78.632C137.347 78.8131 165.907 79.1008 194.48 79.1754C206.202 79.1754 217.924 78.8664 229.584 78.5893C232.386 78.5254 235.188 78.0885 237.586 77.854C240.517 88.0308 243.011 97.9092 246.229 107.542C249.448 117.176 253.763 126.51 261.693 133.459C265.923 137.342 271.309 139.734 277.028 140.268C287.194 141.206 295.465 137.348 302.946 131.061C307.017 127.629 311.013 124.112 314.775 120.874C322.831 140.663 339.02 154.515 358.543 166.077Z" fill="#FAB44B"/>
<path d="M166.898 0C166.504 8.20534 166.1 16.3468 165.684 24.8291L180.603 24.1152L181.009 24.9677L152.342 66.2394V37.4674H139.19C139.521 34.2919 164.117 0.532813 166.898 0Z" fill="#FAB44B"/>
<path d="M123.206 44.2988L133.127 42.9774L117.311 70.9502L116.62 70.8863C116.299 65.0359 115.98 59.1643 115.649 53.1755L107.124 54.3796C107.923 50.1171 120.189 29.6677 122.268 29.0283C122.534 34.1007 122.853 39.1092 123.206 44.2988Z" fill="#FAB44B"/>
<path d="M181.168 50.2122C189.63 40.0355 189.801 40.206 200.084 28.4414C199.381 33.7696 198.71 38.8953 198.039 43.9676C200.468 44.3192 202.482 44.543 204.433 44.9373C205.956 45.2463 206.34 46.2054 205.328 47.4735C201.129 52.6951 196.898 57.8954 192.688 63.1062C191.345 64.758 190.046 66.4523 188.66 68.0721C188.162 68.563 187.616 69.0022 187.029 69.3828L186.305 69.0205L189.363 51.15L181.168 50.2122Z" fill="#FAB44B"/>
</svg>
