<?xml version="1.0" encoding="utf-8"?>
<!-- Generator: Adobe Illustrator 23.0.6, SVG Export Plug-In . SVG Version: 6.00 Build 0)  -->
<!DOCTYPE svg PUBLIC "-//W3C//DTD SVG 1.1//EN" "http://www.w3.org/Graphics/SVG/1.1/DTD/svg11.dtd" [
	<!ENTITY ns_extend "http://ns.adobe.com/Extensibility/1.0/">
	<!ENTITY ns_ai "http://ns.adobe.com/AdobeIllustrator/10.0/">
	<!ENTITY ns_graphs "http://ns.adobe.com/Graphs/1.0/">
	<!ENTITY ns_vars "http://ns.adobe.com/Variables/1.0/">
	<!ENTITY ns_imrep "http://ns.adobe.com/ImageReplacement/1.0/">
	<!ENTITY ns_sfw "http://ns.adobe.com/SaveForWeb/1.0/">
	<!ENTITY ns_custom "http://ns.adobe.com/GenericCustomNamespace/1.0/">
	<!ENTITY ns_adobe_xpath "http://ns.adobe.com/XPath/1.0/">
]>
<svg version="1.1" id="Layer_1" xmlns:x="&ns_extend;" xmlns:i="&ns_ai;" xmlns:graph="&ns_graphs;"
	 xmlns="http://www.w3.org/2000/svg" xmlns:xlink="http://www.w3.org/1999/xlink" x="0px" y="0px" width="24px" height="24px"
	 viewBox="0 0 24 24" style="enable-background:new 0 0 24 24;" xml:space="preserve">
<style type="text/css">
	.st0{fill-rule:evenodd;clip-rule:evenodd;fill:#FFFFFF;}
</style>
<metadata>
	<sfw  xmlns="&ns_sfw;">
		<slices></slices>
		<sliceSourceBounds  bottomLeftOrigin="true" height="21" width="21" x="1.5" y="1.5"></sliceSourceBounds>
	</sfw>
</metadata>
<path class="st0" d="M1.5,12C1.5,6.2,6.2,1.5,12,1.5c5.8,0,10.5,4.7,10.5,10.5c0,5.8-4.7,10.5-10.5,10.5C6.2,22.5,1.5,17.8,1.5,12z
	 M15.7,20.2c0.7-0.3,1.4-0.8,2-1.3c-0.3-0.2-0.6-0.4-1-0.6c-0.1,0.3-0.3,0.6-0.5,0.9C16.1,19.6,15.9,19.9,15.7,20.2z M17.3,16.9
	c0.5,0.3,1.1,0.6,1.6,0.9c1.2-1.4,2-3.2,2.1-5.1h-3C18,14.2,17.7,15.7,17.3,16.9z M16.5,12.8c-0.1,1.3-0.3,2.5-0.6,3.6
	c-1-0.3-2.1-0.5-3.2-0.6v-3H16.5z M18,11.3h3c-0.2-1.9-0.9-3.7-2.1-5.1c-0.5,0.3-1,0.6-1.6,0.9C17.7,8.3,18,9.8,18,11.3z M15.9,7.6
	c0.3,1.1,0.5,2.3,0.6,3.6h-3.8v-3C13.9,8.2,14.9,8,15.9,7.6z M16.8,5.7c0.3-0.2,0.7-0.4,1-0.6c-0.6-0.5-1.3-0.9-2-1.3
	c0.2,0.3,0.4,0.6,0.6,0.9C16.5,5,16.6,5.3,16.8,5.7z M8.3,3.8c-0.7,0.3-1.4,0.8-2,1.3c0.3,0.2,0.6,0.4,1,0.6C7.4,5.3,7.5,5,7.7,4.7
	C7.9,4.4,8.1,4.1,8.3,3.8z M6.7,7.1C6.2,6.8,5.6,6.5,5.1,6.2C4,7.6,3.2,9.3,3,11.3h3C6,9.8,6.3,8.3,6.7,7.1z M7.5,11.3
	c0.1-1.3,0.3-2.5,0.6-3.6c1,0.3,2.1,0.5,3.2,0.6v3H7.5z M6,12.8H3c0.2,1.9,0.9,3.7,2.1,5.1c0.5-0.3,1-0.6,1.6-0.9
	C6.3,15.7,6,14.2,6,12.8z M8.1,16.4c-0.3-1.1-0.5-2.3-0.6-3.6h3.8v3C10.1,15.8,9.1,16,8.1,16.4z M7.2,18.3c0.1,0.3,0.3,0.6,0.5,0.9
	c0.2,0.3,0.4,0.6,0.6,0.9c-0.7-0.3-1.4-0.8-2-1.3C6.5,18.7,6.9,18.5,7.2,18.3z M8.6,17.8c0.8-0.3,1.7-0.5,2.6-0.5v3.6
	c-0.8-0.3-1.6-1.1-2.3-2.3C8.9,18.3,8.7,18,8.6,17.8z M12.8,17.2c0.9,0.1,1.8,0.2,2.6,0.5c-0.1,0.3-0.2,0.5-0.4,0.8
	c-0.7,1.3-1.5,2-2.3,2.3V17.2z M11.3,6.8c-0.9-0.1-1.8-0.2-2.6-0.5C8.7,6,8.9,5.7,9,5.5c0.7-1.3,1.5-2,2.3-2.3V6.8z M12.8,6.8
	c0.9-0.1,1.8-0.2,2.6-0.5C15.3,6,15.1,5.7,15,5.5c-0.7-1.3-1.5-2-2.3-2.3V6.8z"/>
</svg>
