<svg width="1329" height="542" viewBox="0 0 1329 542" fill="none" xmlns="http://www.w3.org/2000/svg">
<path d="M644.933 207.883C659.031 205.733 672.89 203.582 687.824 201.312C682.686 224.729 676.832 247.07 671.456 270.606C673.845 269.89 675.757 269.292 677.788 268.814C695.828 264.035 712.554 265.827 727.011 278.492C736.091 286.496 740.869 297.01 742.781 308.599C748.038 340.856 739.316 369.052 716.139 392.11C700.129 408 680.416 416.243 657.597 416.841C641.11 417.318 624.981 415.646 609.33 410.628C605.627 409.433 602.043 407.761 597.861 406.207C613.512 339.9 629.163 274.191 644.933 207.883ZM644.933 381.596C655.925 383.627 666.199 383.388 675.757 377.893C688.899 370.366 696.665 358.657 700.727 344.44C703.594 334.405 704.191 324.13 701.085 313.855C698.576 305.373 694.036 301.072 685.315 301.072C679.819 301.072 674.323 302.267 669.067 303.7C664.766 304.895 662.137 308.001 661.062 313.019C658.075 326.997 654.371 340.856 651.026 354.715C649.115 363.436 647.084 372.038 644.933 381.596Z" fill="white"/>
<path d="M1274.91 201.551C1269.42 224.37 1264.16 246.233 1258.66 268.814C1260.58 268.694 1261.89 268.814 1263.08 268.575C1272.52 266.663 1281.96 265.946 1291.52 267.858C1312.19 271.801 1322.82 286.615 1324.61 305.611C1325.69 316.722 1324.49 327.833 1321.86 338.705C1316.25 361.644 1310.75 384.702 1305.26 407.641C1304.9 409.194 1304.3 410.627 1303.82 412.658C1290.44 412.658 1277.06 412.658 1262.96 412.658C1263.44 410.15 1263.8 407.76 1264.4 405.61C1270.25 380.879 1276.11 356.148 1281.84 331.298C1283.27 325.085 1284.59 318.873 1283.04 312.421C1281.48 306.089 1277.9 302.266 1271.45 301.31C1264.64 300.235 1258.07 301.31 1250.78 302.983C1246.36 321.262 1241.94 339.541 1237.64 357.821C1233.34 375.98 1229.03 394.14 1224.61 412.658C1210.87 412.658 1197.49 412.658 1183.16 412.658C1199.52 344.32 1215.65 276.579 1232.02 208.122C1245.88 205.374 1259.98 203.462 1274.91 201.551Z" fill="white"/>
<path d="M1047.91 276.58C1046 284.943 1044.21 292.709 1042.42 300.355C1038.36 317.32 1034.29 334.405 1030.23 351.37C1026.05 369.052 1027.48 386.495 1032.26 403.818C1032.74 405.73 1033.34 407.642 1034.17 410.27C1021.87 412.062 1010.04 413.854 997.735 415.766C995.704 411.465 993.792 407.642 991.881 403.699C986.385 406.805 981.248 410.15 975.752 412.659C960.579 419.708 933.339 419.469 918.166 402.743C912.79 396.889 908.847 390.318 907.055 382.552C898.573 346.95 905.741 315.289 932.384 289.483C950.902 271.443 973.84 264.514 999.646 266.306C1011.35 267.142 1023.06 268.217 1034.29 271.682C1038.71 272.996 1043.13 274.788 1047.91 276.58ZM986.266 371.441C988.058 347.905 996.062 325.086 1000.72 301.67C982.801 298.205 973.243 301.789 963.088 310.988C953.889 319.232 948.632 329.746 946.123 341.693C944.092 351.848 944.092 361.764 947.676 371.68C949.946 377.893 954.486 380.999 961.057 381.716C971.212 382.791 979.336 379.327 986.266 371.441Z" fill="white"/>
<path d="M594.874 185.662C608.852 127.12 622.592 69.415 636.331 11.3515C648.756 9.4399 660.703 7.52834 673.606 5.49731C673.367 8.00623 673.248 9.79832 672.889 11.5904C668.947 28.0776 665.004 44.4453 661.062 60.9325C660.703 62.3662 660.703 63.9193 660.345 66.1893C662.973 65.353 665.004 64.7556 667.035 64.2777C683.761 60.2157 698.695 63.3219 711.001 75.8665C717.214 82.1986 720.44 90.2032 722.112 98.6858C729.997 137.156 708.851 178.732 668.469 191.755C653.774 196.534 638.72 196.534 623.547 193.905C616.857 192.711 610.286 191.157 603.834 189.485C601.087 188.648 598.458 187.215 594.874 185.662ZM636.57 163.559C638.362 164.157 639.796 164.873 641.349 164.993C650.787 165.829 659.509 164.037 667.394 158.422C682.925 147.192 691.288 123.655 686.151 105.257C684.598 100 682.208 95.1016 675.996 94.0263C669.783 92.9511 663.69 93.3095 657.836 95.5795C654.132 97.0132 651.743 99.4026 650.907 103.704C648.039 116.487 644.813 129.151 641.827 141.935C639.915 148.984 638.362 156.152 636.57 163.559Z" fill="white"/>
<path d="M802.757 362.958C803.594 373.83 809.687 380.162 820.2 381.596C833.581 383.388 846.723 381.835 859.626 378.012C860.582 377.773 861.538 377.414 862.494 377.175C862.852 377.056 863.33 377.175 864.644 377.175C866.078 387.57 867.153 398.083 867.511 409.433C860.94 411.225 854.728 413.137 848.396 414.451C834.418 417.318 820.439 418.035 806.342 415.646C781.133 411.345 765.004 394.857 761.898 369.529C758.075 338.347 766.796 311.107 789.257 289.005C806.7 271.801 828.205 264.035 852.816 265.827C871.454 267.141 886.746 278.491 890.809 294.501C895.707 313.855 889.972 334.882 870.259 347.427C858.312 355.073 844.931 358.777 830.953 360.449C823.068 361.405 815.063 361.764 807.178 362.48C805.744 362.48 804.43 362.719 802.757 362.958ZM803.594 332.971C814.107 334.524 836.449 330.581 845.17 325.444C847.082 324.369 848.993 323.174 850.427 321.501C854.369 317.081 855.803 311.824 853.772 305.97C851.861 300.355 847.201 298.921 842.064 298.563C839.913 298.443 837.643 298.563 835.493 298.921C819.125 301.549 805.864 315.767 803.594 332.971Z" fill="white"/>
<path d="M1006.82 142.173C1007.65 120.31 1014.22 100.597 1029.04 84.2289C1046.12 65.5912 1067.39 58.4229 1092.24 63.5602C1112.07 67.6222 1124.62 81.6005 1127.48 101.672C1130.83 124.85 1126.05 146.355 1112.91 165.948C1096.54 190.201 1067.75 200.953 1039.67 193.068C1022.95 188.409 1013.39 176.581 1009.33 160.094C1007.77 154.24 1007.53 148.147 1006.82 142.173ZM1043.14 139.306C1043.85 144.204 1044.21 149.222 1045.53 153.881C1047.32 160.572 1051.74 163.559 1058.55 164.036C1065.72 164.634 1071.81 162.483 1076.95 157.465C1085.31 149.341 1089.37 139.186 1091.28 128.075C1092.72 119.712 1092.6 111.469 1090.21 103.344C1088.42 97.3709 1084.47 94.0256 1078.26 93.3088C1070.74 92.4725 1064.16 94.3841 1058.67 99.7603C1047.68 110.632 1043.97 124.252 1043.14 139.306Z" fill="white"/>
<path d="M1262.25 94.1451C1254.36 127.119 1246.59 159.377 1238.95 191.515C1226.64 191.515 1214.93 191.515 1202.51 191.515C1212.31 151.014 1221.86 111.23 1231.42 71.4454C1240.5 67.7417 1249.34 65.7107 1258.42 64.277C1271.21 62.246 1284.11 61.2902 1297.01 63.7991C1308.96 66.0691 1318.76 71.5648 1324.01 83.1536C1327.84 91.6362 1329.51 100.716 1327.72 109.915C1324.61 125.686 1320.91 141.337 1317.32 157.107C1315.17 166.784 1312.66 176.462 1310.39 186.139C1310.03 187.811 1309.44 189.604 1308.84 191.635C1297.01 191.635 1285.42 191.635 1273.24 191.635C1273.48 189.842 1273.48 188.289 1273.83 186.856C1278.49 166.904 1283.39 147.071 1287.81 127C1289.25 120.429 1290.44 113.739 1290.8 107.048C1291.16 98.0877 1286.74 93.9062 1277.78 93.6672C1272.76 93.4283 1267.86 93.9062 1262.25 94.1451Z" fill="white"/>
<path d="M1188.05 274.189C1183.16 285.181 1178.74 295.456 1173.96 306.208C1171.09 305.252 1168.58 304.535 1166.19 303.699C1157.23 300.473 1148.03 299.876 1138.59 301.549C1125.21 303.938 1115.89 311.704 1110.28 323.89C1104.42 336.554 1103.23 349.935 1106.22 363.555C1108.84 375.383 1116.01 380.998 1128.2 381.715C1137.88 382.193 1147.2 381.117 1156.39 377.772C1157.47 377.414 1158.66 377.175 1159.74 376.816C1161.89 381.595 1163.68 397.127 1163.56 409.074C1155.2 413.016 1146.36 415.884 1137.04 416.362C1127.6 416.84 1117.92 416.72 1108.49 415.406C1083.28 411.822 1065.72 392.945 1062.85 367.378C1060.7 348.023 1063.21 329.266 1072.05 311.704C1084.95 286.376 1105.38 271.322 1133.58 266.782C1150.06 264.154 1166.07 265.468 1181.72 271.561C1183.51 272.158 1185.31 272.995 1188.05 274.189Z" fill="white"/>
<path d="M880.651 160.454C881.487 170.131 882.324 178.972 883.16 187.813C875.872 191.397 868.584 192.711 861.416 193.906C851.978 195.459 842.42 195.22 832.862 193.548C815.061 190.441 805.264 177.777 805.025 159.498C804.906 148.626 807.415 138.232 809.804 127.718C815.778 102.39 821.751 76.9427 827.725 51.6146C829.039 45.8799 830.712 40.1452 832.265 34.0521C844.571 32.1406 856.637 30.229 869.899 28.198C866.792 40.9815 864.045 52.5704 861.058 65.2344C874.319 65.2344 886.864 65.2344 900.603 65.2344C898.094 75.6285 895.705 85.0669 893.196 95.222C880.054 95.222 867.031 95.222 853.889 95.222C851.5 105.019 849.23 114.099 846.96 123.179C845.526 129.033 844.093 134.767 843.017 140.622C842.301 143.967 841.823 147.312 841.703 150.657C841.464 158.901 845.407 163.56 853.65 163.919C860.102 164.158 866.673 163.082 873.124 162.365C875.394 162.007 877.425 161.29 880.651 160.454Z" fill="white"/>
<path d="M986.744 159.378C987.7 169.413 988.536 178.613 989.372 188.171C980.531 192.113 971.69 194.264 962.61 195.1C954.247 195.817 946.004 195.339 937.76 193.427C916.853 188.409 903.352 174.073 900.485 152.687C897.617 130.943 901.68 110.633 914.344 92.4731C927.366 73.9549 945.645 64.1582 968.106 62.2466C979.695 61.2909 991.164 62.1272 1002.28 66.0697C1004.78 67.0255 1007.29 68.1008 1010.52 69.415C1006.34 78.9728 1002.39 87.9332 998.213 97.491C994.987 96.5352 992.24 95.8184 989.372 94.8626C981.009 92.1147 972.527 92.1147 964.044 94.1458C956.517 96.0573 950.305 100.239 945.884 106.81C936.804 120.191 935.251 134.886 939.313 150.178C941.583 158.9 948.035 163.081 956.876 163.798C965.358 164.395 973.602 163.32 981.607 160.811C982.921 160.692 984.235 160.214 986.744 159.378Z" fill="white"/>
<path d="M767.51 191.515C755.204 191.515 743.735 191.515 731.19 191.515C741.226 149.342 751.142 107.646 761.178 65.2331C773.245 65.1136 784.953 64.8747 797.617 65.5915C787.581 108.004 777.546 149.581 767.51 191.515Z" fill="white"/>
<path d="M1172.29 191.636C1160.1 191.636 1148.87 191.636 1136.56 191.636C1138.71 177.18 1142.9 163.56 1146 149.821C1149.11 135.843 1152.57 121.984 1155.8 108.005C1159.14 94.1467 1162.49 80.1684 1165.95 65.5928C1177.78 64.8759 1189.61 64.9954 1202.39 65.5928C1192.48 108.005 1182.32 149.701 1172.29 191.636Z" fill="white"/>
<path d="M1203.11 470.246C1198.57 493.782 1194.03 517.557 1189.49 541.69C1185.55 541.69 1181.84 541.69 1177.78 541.69C1179.33 533.446 1180.89 525.681 1182.56 517.079C1180.89 518.393 1179.81 519.11 1178.86 519.946C1171.69 524.964 1164.04 522.455 1161.53 513.972C1159.38 506.924 1160.22 499.755 1162.13 492.826C1164.04 485.658 1167.15 478.967 1172.52 473.71C1180.41 465.586 1192.83 464.033 1203.11 470.246ZM1189.97 477.414C1184.71 475.98 1182.44 476.697 1179.33 480.879C1173.96 488.166 1172.17 496.649 1172.28 505.49C1172.28 507.521 1173.36 509.552 1174.32 512.419C1176.82 511.344 1179.09 510.986 1180.41 509.671C1182.2 507.879 1183.87 505.609 1184.35 503.22C1186.5 494.737 1188.17 486.016 1189.97 477.414Z" fill="white"/>
<path d="M784.121 50.8978C769.545 50.7783 761.182 39.07 765.603 25.3307C770.382 10.6356 787.586 3.58674 800.847 10.8746C807.418 14.4587 809.807 20.3129 809.449 27.2423C808.732 40.5037 797.263 51.0173 784.121 50.8978Z" fill="white"/>
<path d="M1189.13 50.8978C1173.48 50.3004 1166.43 39.07 1170.37 26.0475C1173.96 13.8614 1186.5 5.97618 1198.57 8.36563C1211.11 10.8746 1216.97 20.5518 1213.38 32.8575C1210.28 43.1321 1199.88 50.8978 1189.13 50.8978Z" fill="white"/>
<path d="M683.523 447.425C682.925 450.77 682.448 453.518 681.85 457.102C675.996 457.102 670.261 457.102 663.929 457.102C662.615 463.793 661.42 469.886 659.987 476.935C665.841 477.173 670.978 477.293 676.952 477.532C676.235 480.997 675.757 483.864 675.04 487.568C669.425 487.568 664.049 487.568 657.956 487.568C656.403 495.453 655.088 502.621 653.535 510.387C660.106 510.626 666.08 510.865 672.651 511.104C671.934 514.927 671.337 517.914 670.739 521.259C660.345 521.259 650.429 521.259 639.438 521.259C644.097 496.409 648.756 472.156 653.416 447.544C663.571 447.425 673.248 447.425 683.523 447.425Z" fill="white"/>
<path d="M1158.67 468.691C1155.68 486.254 1152.69 503.338 1149.71 521.14C1147.2 521.14 1144.21 521.14 1140.86 521.14C1140.63 518.87 1140.51 516.719 1140.27 514.688C1137.88 516.719 1135.61 518.989 1132.98 520.662C1126.65 524.604 1120.31 522.215 1117.45 515.405C1113.27 505.369 1117.57 479.444 1132.26 470.603C1140.63 465.346 1149.35 465.107 1158.67 468.691ZM1145.64 476.816C1139.79 475.262 1136.8 478.249 1134.53 481.714C1129.87 488.882 1127.6 496.767 1127.72 505.369C1127.72 506.325 1127.72 507.4 1127.96 508.356C1128.92 511.94 1131.78 513.016 1134.65 510.746C1135.97 509.67 1137.16 508.117 1137.88 506.564C1139.43 502.741 1140.98 498.798 1141.94 494.856C1143.49 488.882 1144.45 482.909 1145.64 476.816Z" fill="white"/>
<path d="M1098.57 468.691C1095.46 486.373 1092.6 503.338 1089.49 521.259C1087.22 521.378 1084.23 521.498 1080.53 521.736C1080.41 518.989 1080.29 516.719 1080.17 514.449C1077.78 516.48 1075.63 518.869 1073.12 520.542C1066.67 524.604 1059.86 522.214 1057.23 515.046C1052.33 501.904 1060.1 478.129 1072.05 470.602C1080.17 465.346 1089.13 465.226 1098.57 468.691ZM1086.15 476.815C1079.57 476.218 1077.42 477.054 1074.44 481.594C1069.42 489.121 1067.39 497.484 1067.87 506.564C1067.99 508.356 1068.94 510.148 1069.54 511.82C1075.03 512.298 1077.3 508.953 1078.38 505.488C1081.13 496.05 1083.52 486.612 1086.15 476.815Z" fill="white"/>
<path d="M1218.76 511.105C1222.82 512.897 1225.45 511.225 1227 508.238C1228.8 505.012 1230.23 501.428 1231.07 497.724C1232.98 489.361 1234.29 480.998 1235.85 472.515C1236.08 470.962 1236.56 469.529 1237.04 467.737C1240.74 467.737 1244.21 467.737 1248.51 467.737C1245.28 485.777 1242.06 503.22 1238.83 521.141C1235.85 521.141 1232.98 521.141 1229.63 521.141C1229.15 519.827 1228.68 518.273 1228.2 516.601C1225.81 518.154 1223.66 519.946 1221.15 521.141C1212.91 524.844 1205.86 520.663 1205.86 511.702C1205.98 504.773 1207.17 497.844 1208.25 491.034C1209.32 484.224 1210.76 477.414 1212.07 470.484C1212.31 469.529 1212.79 468.692 1213.27 467.617C1216.61 467.617 1219.96 467.617 1223.78 467.617C1223.66 475.263 1221.39 482.193 1220.43 489.361C1219.84 496.649 1216.97 503.698 1218.76 511.105Z" fill="white"/>
<path d="M754.731 467.736C758.195 467.736 761.54 467.736 765.244 467.736C764.766 482.551 758.315 496.41 759.39 510.985C764.288 513.016 766.917 510.746 768.47 507.64C770.143 504.295 771.457 500.711 772.293 497.127C774.205 488.644 775.638 479.923 777.191 471.321C777.43 470.126 777.908 469.051 778.386 467.856C781.97 467.856 785.435 467.856 789.736 467.856C786.391 485.896 783.284 503.339 779.939 521.26C776.833 521.26 773.966 521.26 770.62 521.26C770.262 519.826 769.904 518.393 769.545 516.72C769.067 516.959 768.47 517.078 768.111 517.317C765.364 518.871 762.855 521.021 759.868 521.977C752.938 524.127 747.682 520.304 747.084 512.897C746.845 509.552 746.845 506.087 747.323 502.742C749.235 491.75 751.385 480.878 753.536 469.887C753.894 469.289 754.253 468.812 754.731 467.736Z" fill="white"/>
<path d="M844.812 516.839C841.109 518.751 837.883 520.901 834.418 521.976C828.803 523.768 824.024 520.901 822.471 515.286C821.754 512.896 821.276 510.148 821.635 507.64C823.785 494.498 826.175 481.475 828.564 467.975C832.626 467.975 836.21 467.975 840.153 467.975C839.078 482.67 833.702 496.409 833.702 510.626C837.764 512.896 840.511 511.821 842.184 509.073C843.976 506.086 845.649 502.741 846.485 499.396C848.755 489.121 850.667 478.727 852.817 467.975C856.521 467.975 860.224 467.975 864.525 467.975C861.3 485.776 858.074 503.339 854.848 521.259C851.861 521.259 848.994 521.259 845.649 521.259C845.41 519.706 845.171 518.153 844.812 516.839Z" fill="white"/>
<path d="M895.347 502.862C895.467 492.229 898.334 482.552 905.144 474.188C906.578 472.396 908.489 470.724 910.401 469.529C921.751 462.361 933.459 467.737 934.773 480.998C935.968 493.065 932.981 504.295 925.813 514.212C924.498 516.123 922.587 517.796 920.675 519.11C915.299 522.814 909.445 524.128 903.352 520.902C897.617 517.915 895.706 512.659 895.347 506.565C895.347 505.251 895.347 504.057 895.347 502.862ZM923.782 486.016C923.543 485.897 923.304 485.897 923.065 485.777C922.945 483.746 923.065 481.715 922.706 479.804C921.87 475.981 918.525 474.905 915.538 477.414C914.343 478.37 913.149 479.684 912.671 481.118C910.879 485.897 908.967 490.795 908.011 495.813C907.175 499.756 907.533 504.057 907.892 508.238C908.011 509.672 909.445 511.942 910.64 512.181C912.193 512.539 914.463 511.583 915.777 510.389C917.33 508.955 918.644 506.924 919.122 504.893C920.795 498.68 922.228 492.348 923.782 486.016Z" fill="white"/>
<path d="M966.792 500.591C966.195 510.149 969.659 513.375 978.739 511.821C980.651 511.463 982.562 510.985 984.593 510.507C984.952 511.702 985.43 512.658 985.549 513.613C985.788 515.167 985.908 516.72 986.027 518.512C979.815 522.096 973.244 523.291 966.434 521.618C960.46 520.184 956.637 516.122 955.442 510.268C952.694 496.648 955.92 484.223 964.642 473.471C967.509 470.006 971.332 467.856 975.752 466.9C984.593 464.988 991.642 470.126 992.479 479.205C993.195 487.568 988.536 494.976 980.412 497.604C976.23 498.918 971.69 499.516 966.792 500.591ZM967.748 490.914C971.69 489.838 974.797 489.6 977.067 488.166C978.978 486.971 980.531 484.582 981.368 482.312C982.204 480.281 981.726 477.533 979.217 476.935C977.664 476.577 975.275 477.294 973.96 478.369C970.376 481.117 969.062 485.298 967.748 490.914Z" fill="white"/>
<path d="M729.639 521.26C725.697 521.26 722.232 521.26 718.05 521.26C720.798 506.206 723.546 491.75 726.174 476.935C723.904 476.457 722.232 476.099 719.842 475.741C720.32 472.993 720.679 470.603 721.157 467.975C723.427 467.617 725.338 467.378 727.847 467.019C728.683 464.391 729.4 461.523 730.356 458.776C733.104 451.249 737.763 445.514 746.126 444.2C749.113 443.722 752.339 444.2 756.281 444.319C755.445 448.023 754.848 450.771 754.489 452.563C750.427 454.116 746.724 454.714 744.215 456.745C741.467 458.895 740.511 462.718 740.631 466.9C743.617 467.258 746.485 467.497 749.949 467.856C749.472 470.603 748.994 473.112 748.516 475.86C745.29 476.099 742.303 476.338 738.6 476.577C735.613 491.272 732.626 506.087 729.639 521.26Z" fill="white"/>
<path d="M1034.41 477.055C1032.14 476.457 1030.59 476.099 1028.8 475.621C1029.16 472.993 1029.52 470.723 1029.76 468.214C1031.91 467.736 1033.82 467.377 1036.09 467.019C1036.92 463.554 1037.88 459.97 1038.84 456.267C1042.66 455.311 1046.24 454.474 1050.78 453.28C1050.07 458.417 1049.47 462.599 1048.75 467.019C1051.98 467.377 1054.84 467.736 1058.19 468.094C1057.71 470.842 1057.23 473.112 1056.76 475.98C1053.53 476.218 1050.42 476.457 1046.72 476.696C1044.81 488.046 1041.58 499.157 1041.46 511.104C1043.97 511.821 1046 512.538 1048.39 513.255C1048.03 515.883 1047.68 518.392 1047.2 521.26C1044.93 521.737 1042.9 522.335 1040.75 522.454C1032.86 522.693 1028.08 518.034 1028.92 510.268C1029.64 503.219 1031.19 496.17 1032.38 489.121C1032.98 485.179 1033.7 481.356 1034.41 477.055Z" fill="white"/>
<path d="M793.676 475.622C794.154 472.874 794.512 470.484 794.99 467.975C797.141 467.617 798.933 467.378 801.203 467.02C802.039 463.555 802.875 459.971 803.831 456.148C807.654 455.192 811.119 454.236 815.778 453.041C814.942 458.179 814.225 462.36 813.509 466.9C816.615 467.259 819.482 467.498 822.947 467.856C822.469 470.604 821.991 473.113 821.513 475.861C818.048 476.1 814.942 476.338 811.239 476.577C810.044 488.166 805.743 499.158 806.101 511.105C808.61 511.702 810.402 512.3 813.15 513.016C812.792 515.525 812.314 518.154 811.836 521.499C808.969 521.738 806.34 522.455 803.712 522.216C796.782 521.619 793.198 517.795 793.796 510.747C794.273 503.817 795.827 497.007 796.902 490.197C797.619 485.896 798.455 481.595 799.291 476.936C797.619 476.577 796.185 476.219 793.676 475.622Z" fill="white"/>
<path d="M704.788 445.157C699.89 470.963 695.111 496.052 690.332 521.141C686.15 521.141 682.686 521.141 678.385 521.141C683.283 495.574 687.942 470.485 692.721 445.157C696.783 445.157 700.248 445.157 704.788 445.157Z" fill="white"/>
<path d="M990.687 518.512C991.643 516.003 992.598 513.613 993.554 510.985C995.824 511.582 997.616 512.299 999.528 512.538C1002.75 513.136 1005.98 512.777 1008.01 509.671C1009.68 507.042 1009.32 503.219 1007.05 500.233C1006.22 499.157 1005.02 498.321 1004.07 497.365C996.183 490.077 994.749 481.953 1000.13 474.068C1005.26 466.661 1015.66 464.391 1025.09 469.05C1024.38 471.44 1023.66 474.068 1022.82 476.816C1020.32 476.577 1018.17 476.338 1016.01 476.219C1013.27 476.099 1010.76 476.696 1009.56 479.444C1008.49 482.192 1008.73 484.94 1010.64 487.33C1011.71 488.524 1012.91 489.599 1013.98 490.675C1022.11 498.321 1023.06 507.759 1017.09 515.764C1012.67 521.499 998.811 525.202 990.687 518.512Z" fill="white"/>
<path d="M885.071 473.589C888.536 469.647 892.12 465.943 898.93 466.899C898.333 470.722 897.855 474.306 897.258 478.01C887.103 479.324 883.638 486.492 881.726 494.855C880.173 501.426 879.217 508.117 878.023 514.807C877.664 516.958 876.947 518.989 876.469 521.378C872.766 521.378 869.301 521.378 865 521.378C868.226 503.338 871.452 485.895 874.677 467.974C877.784 467.974 880.89 467.974 884.235 467.974C884.355 470.125 884.594 471.917 884.713 473.828C884.713 473.709 884.833 473.589 885.071 473.589Z" fill="white"/>
<path d="M1260.82 521.26C1256.87 521.26 1253.41 521.26 1248.99 521.26C1252.45 503.219 1255.8 485.657 1259.14 467.855C1263.2 467.855 1266.67 467.855 1271.09 467.855C1267.51 485.896 1264.16 503.458 1260.82 521.26Z" fill="white"/>
<path d="M621.755 490.556C625.339 490.556 628.326 490.556 632.029 490.556C629.759 507.999 626.773 524.845 623.905 541.81C619.365 541.81 615.423 541.81 610.524 541.81C614.347 524.486 618.051 507.521 621.755 490.556Z" fill="white"/>
<path d="M1285.19 447.546C1290.09 447.546 1294.03 447.546 1298.81 447.546C1294.98 464.869 1291.28 481.595 1287.46 498.68C1283.99 498.68 1280.89 498.68 1277.06 498.68C1279.81 481.476 1282.44 464.75 1285.19 447.546Z" fill="white"/>
<path d="M1286.62 513.733C1286.62 518.273 1282.68 522.574 1278.5 522.455C1274.91 522.335 1272.05 519.229 1271.81 515.286C1271.69 510.747 1275.39 506.326 1279.57 506.207C1283.4 506.207 1286.5 509.552 1286.62 513.733Z" fill="white"/>
<path d="M629.64 482.55C625.458 482.55 622.83 479.803 622.83 475.382C622.83 470.603 626.534 466.661 630.835 466.78C634.419 466.9 637.406 470.006 637.525 473.829C637.645 478.249 633.821 482.431 629.64 482.55Z" fill="white"/>
<path d="M1270.85 446.35C1274.43 446.35 1277.78 446.35 1282.2 446.35C1278.02 452.324 1273.84 457.103 1269.42 461.643C1266.91 461.643 1264.52 461.643 1261.41 461.643C1264.04 455.669 1267.62 451.129 1270.85 446.35Z" fill="white"/>
<path d="M1089.01 446.35C1092.96 446.35 1096.18 446.35 1100.6 446.35C1097.97 449.576 1095.94 452.204 1093.91 454.594C1091.88 456.983 1089.73 459.373 1087.82 461.643C1085.19 461.643 1082.92 461.643 1079.58 461.643C1082.32 455.789 1085.79 451.129 1089.01 446.35Z" fill="white"/>
<path d="M260.113 418.991C322.597 440.974 381.975 435.478 437.171 398.322C491.89 361.405 521.519 309.315 528.448 243.247C529.404 244.8 530.479 246.234 531.196 247.907C537.17 262.363 539.679 277.536 538.126 292.948C532.63 346.71 513.873 395.216 480.181 437.748C448.641 477.532 408.856 506.206 361.306 523.649C326.898 536.313 291.176 541.45 254.618 539.419C209.338 536.791 167.164 523.649 128.455 499.754C85.4447 472.993 52.7093 437.151 29.6511 392.468C17.226 368.215 8.86296 342.648 4.32301 315.767C-0.0974721 289.125 -0.575361 262.363 2.65039 235.481C7.19034 197.011 19.7349 161.17 40.0452 128.195C59.9971 95.6988 85.8032 68.6981 117.224 47.0736C151.871 23.1791 190.222 8.36451 231.918 2.74931C261.667 -1.31275 291.415 -1.43222 320.805 6.21401C347.328 13.0239 370.625 25.8075 391.533 43.2504C427.853 73.4769 451.508 111.828 461.424 157.824C473.133 212.184 463.694 263.438 433.587 310.391C423.79 325.683 412.441 339.9 398.104 351.25C392.847 355.432 386.515 358.18 380.661 361.405C379.944 361.883 378.749 361.644 377.316 361.764C392.847 303.7 375.165 259.018 324.151 226.282C321.164 240.619 315.071 252.327 304.318 261.885C307.305 263.438 309.814 264.633 312.203 265.947C331.558 276.819 342.071 293.665 344.461 315.408C346.611 335.48 344.461 355.193 335.261 373.592C327.137 389.959 313.876 401.07 297.389 408.358C287.353 412.898 276.839 415.765 265.968 417.677C264.175 418.035 262.144 418.513 260.113 418.991ZM66.0902 172.161C72.4223 172.161 78.1569 172.161 83.8916 172.161C99.5425 172.042 112.565 183.75 112.326 201.312C111.609 251.491 111.968 301.669 111.848 351.848C111.848 353.998 111.729 356.268 111.37 358.419C109.339 370.246 103.246 376.22 91.1794 377.534C86.2811 378.012 81.2632 377.893 76.2454 378.012C74.3338 378.131 72.4223 378.251 70.1523 378.37C68.7186 387.092 67.2849 395.216 65.7318 404.296C77.7985 404.296 89.2679 404.296 100.857 404.296C112.565 404.415 124.154 404.176 136.101 404.774C136.579 424.965 135.623 444.439 136.34 463.913C143.03 463.913 148.885 463.913 155.575 463.913C155.694 444.439 155.694 425.204 155.814 406.088C171.226 406.088 185.563 406.088 200.616 406.088C200.616 425.801 200.616 444.797 200.616 464.032C207.187 464.032 212.922 464.032 219.612 464.032C219.971 444.439 220.21 425.323 220.568 405.969C227.139 405.491 232.874 404.893 238.608 404.535C254.14 403.46 269.432 401.19 284.247 396.052C302.526 389.601 316.863 378.729 323.673 359.852C328.332 346.949 329.646 333.568 328.571 319.948C326.659 295.576 312.562 281.478 289.981 274.668C282.574 272.398 274.928 270.726 267.521 268.695C266.326 268.336 265.37 267.62 263.459 266.664C270.507 263.08 276.72 259.973 282.933 256.748C291.535 252.208 298.822 246.115 303.362 237.274C310.172 224.012 310.172 210.034 306.947 195.936C303.123 179.568 292.132 169.174 277.198 162.364C265.131 156.869 252.228 154.36 239.206 152.568C233.59 151.851 227.975 151.134 221.763 150.417C221.763 130.943 221.763 112.067 221.763 92.5925C218.179 92.5925 215.311 92.5925 212.324 92.5925C209.457 92.5925 206.47 92.5925 202.886 92.5925C202.886 102.748 202.886 112.067 202.886 121.385C202.886 130.704 203.006 139.904 202.528 148.983C195.479 150.417 161.788 150.298 157.367 148.864C157.367 130.226 157.367 111.469 157.367 92.2341C150.916 92.2341 145.061 92.2341 138.252 92.2341C138.252 111.589 138.252 130.824 138.252 150.537C113.76 151.97 90.1042 150.656 66.2097 151.492C66.0902 158.183 66.0902 164.754 66.0902 172.161ZM409.693 314.214C410.768 313.497 411.126 313.377 411.365 313.019C411.843 312.422 412.441 311.824 412.919 311.227C446.61 264.513 457.721 213.021 444.34 156.869C433.707 112.544 408.976 77.1806 372.059 50.7772C343.744 30.4669 311.964 19.117 277.078 17.4444C252.109 16.2497 227.378 18.8781 203.245 25.5685C142.075 42.5336 94.0468 77.8974 58.6829 130.346C57.9661 131.302 57.6077 132.616 57.2493 133.572C78.8738 133.572 100.02 133.572 122.123 133.572C122.123 114.098 122.123 95.1014 122.123 76.2248C129.53 74.9106 169.673 75.3885 174.452 76.8222C174.452 95.2209 174.452 113.859 174.452 132.735C178.514 132.735 181.978 132.735 186.16 132.735C186.16 126.045 186.16 119.713 186.16 113.381C186.16 107.168 186.16 101.075 186.279 94.8625C186.399 88.6499 185.802 82.3179 186.877 76.2248C197.271 74.9106 234.546 75.508 239.086 77.3001C239.086 95.9378 239.086 114.695 239.086 133.691C292.61 122.939 339.204 135.483 376.479 174.909C413.635 214.215 423.313 261.407 409.693 314.214ZM184.129 480.639C184.129 461.045 184.129 441.93 184.129 422.695C179.828 422.695 176.244 422.695 171.823 422.695C171.823 442.169 171.823 461.165 171.823 480.639C159.398 480.639 147.809 480.639 135.384 480.639C184.009 513.374 268.954 535.835 353.421 505.489C436.335 475.74 490.576 406.805 508.616 343.365C479.823 390.557 440.756 423.053 388.905 438.823C337.054 454.594 286.397 449.934 236.577 426.996C236.577 433.925 236.577 439.899 236.577 445.872C236.577 451.607 236.577 457.461 236.458 463.196C236.458 469.05 236.338 474.904 236.219 480.639C218.417 480.639 201.572 480.639 184.129 480.639ZM49.2446 146.594C4.56195 222.459 8.50454 324.847 50.7978 392.588C52.7093 381.955 54.5014 371.68 56.413 361.286C69.077 360.569 81.1437 361.764 93.6883 360.808C94.1662 357.582 94.6441 355.073 94.7636 352.564C94.8831 343.604 94.8831 334.644 94.8831 325.683C95.0025 285.301 95.2415 244.92 95.361 204.419C95.361 191.038 93.091 188.887 79.7101 188.768C71.347 188.648 62.9839 188.768 54.6209 188.648C52.9483 188.648 51.2756 188.29 49.2446 188.17C49.2446 174.312 49.2446 161.05 49.2446 146.594ZM286.636 147.908C311.128 160.453 323.912 180.405 325.226 207.764C363.815 228.672 387.351 260.451 395.117 304.656C395.595 303.103 395.834 302.386 395.953 301.669C397.865 283.151 397.507 264.633 394.52 246.353C392.847 236.437 390.338 226.282 386.037 217.322C372.178 188.29 349.837 167.86 320.088 155.554C309.336 151.134 298.345 148.147 286.636 147.908ZM69.077 421.142C83.5332 440.018 99.9009 456.147 119.494 470.723C119.494 453.638 119.494 437.748 119.494 421.142C102.768 421.142 86.4005 421.142 69.077 421.142Z" fill="#D37923"/>
<path d="M157.488 283.509C164.179 283.27 170.033 282.912 176.007 282.793C192.972 282.434 209.817 282.912 226.543 285.899C236.221 287.571 245.42 290.558 253.903 295.696C267.642 304.059 274.571 316.364 274.093 332.493C273.615 349.936 264.058 361.286 248.885 368.574C239.327 373.233 229.052 375.503 218.539 376.937C199.184 379.565 179.591 379.207 160.117 378.49C159.4 378.49 158.564 378.251 157.488 378.012C157.488 346.591 157.488 315.528 157.488 283.509ZM173.856 361.644C174.812 361.883 175.648 362.122 176.365 362.122C191.538 362.6 206.592 362.003 221.526 359.613C231.083 358.06 240.641 355.551 248.526 349.339C260.593 339.781 260.593 321.741 248.646 312.183C242.433 307.165 235.145 304.656 227.499 302.983C210.893 299.28 194.047 299.16 177.082 299.519C176.126 299.519 175.29 299.997 173.856 300.236C173.856 320.665 173.856 340.856 173.856 361.644Z" fill="#D37923"/>
<path d="M158.683 176.103C159.4 175.744 159.758 175.505 160.117 175.505C180.427 174.908 200.737 174.072 220.689 178.612C228.455 180.404 235.862 183.391 242.433 188.17C264.177 203.82 263.46 236.795 241.119 251.609C232.517 257.344 222.72 259.853 212.685 261.645C194.764 264.99 176.604 263.198 158.803 263.557C157.01 258.658 157.13 186.497 158.683 176.103ZM174.573 246.95C177.56 246.95 179.949 247.069 182.219 246.95C190.343 246.592 198.467 246.353 206.592 245.636C214.477 244.919 222.362 243.246 229.411 239.304C235.384 235.958 239.805 231.419 240.88 224.25C242.792 212.183 238.132 203.223 226.902 198.205C219.017 194.621 210.654 192.829 202.052 192.471C192.972 192.112 183.892 192.351 174.453 192.351C174.573 210.272 174.573 228.073 174.573 246.95Z" fill="#D37923"/>
</svg>
