<svg width="547" height="323" viewBox="0 0 547 323" fill="none" xmlns="http://www.w3.org/2000/svg">
<path d="M411.178 166.077C405.381 165.481 400.383 165.012 395.374 164.469C387.445 163.679 379.513 162.906 371.577 162.145C368.763 161.879 365.94 161.676 363.115 161.517C355.791 161.104 348.469 160.706 341.151 160.323C328.938 159.715 316.715 159.162 304.502 158.522C300.996 158.341 297.49 157.968 293.611 157.648C295.103 156.358 296.52 155.176 297.873 153.919C298.875 153.044 299.791 152.077 300.612 151.031C300.872 150.741 301.057 150.39 301.148 150.011C301.24 149.632 301.236 149.236 301.136 148.859C301.037 148.482 300.846 148.135 300.579 147.85C300.313 147.565 299.98 147.351 299.61 147.226C297.533 146.267 295.295 145.095 293.11 145.095C284.019 144.851 274.918 144.924 265.818 144.999C262.109 144.999 258.358 145.212 254.691 145.607C246.496 146.48 238.259 147.151 230.18 148.569C215.932 151.063 201.769 154.036 187.553 156.828C186.597 157.106 185.588 157.15 184.611 156.956C185.677 155.965 186.743 154.952 187.808 153.972C189.18 152.885 190.483 151.714 191.709 150.466C193.84 147.982 193.244 145.607 190.217 144.36C189.022 143.752 187.717 143.389 186.38 143.294C178.27 143.561 170.15 143.806 162.05 144.424C155.092 144.956 148.132 145.745 141.238 146.854C132.946 148.174 124.708 149.795 116.492 151.553C103.213 154.394 89.9524 157.354 76.7093 160.43C69.1216 162.188 61.6084 164.266 54.0526 166.184C53.8075 166.248 53.5091 166.109 52.6353 165.949C88.5278 147.375 103.671 116.153 108.392 78.1951H120.754C122.46 83.342 124.165 88.5104 125.913 93.668C126.019 93.9877 126.456 94.2115 127.341 95.032C128.715 90.7161 130.122 86.7733 131.219 82.756C132.318 78.7386 132.19 78.632 136.548 78.632C144.839 78.632 153.12 78.632 161.411 78.632C189.983 78.8131 218.543 79.1008 247.115 79.1754C258.837 79.1754 270.56 78.8664 282.219 78.5893C285.021 78.5254 287.824 78.0885 290.222 77.854C293.152 88.0308 295.646 97.9092 298.864 107.542C302.083 117.176 306.398 126.51 314.328 133.459C318.558 137.342 323.945 139.734 329.663 140.268C339.83 141.206 348.1 137.348 355.581 131.061C359.652 127.629 363.648 124.112 367.411 120.874C375.466 140.663 391.655 154.515 411.178 166.077Z" fill="#FAB44B"/>
<path d="M441.892 248.153V319.551C433.195 319.551 424.638 319.551 416.08 319.477C415.389 319.477 414.471 318.582 414.045 317.867C408.823 309.183 403.687 300.444 398.518 291.727C398.257 291.398 397.972 291.088 397.666 290.8V319.413H370.032V247.93H386.497C389.267 247.93 392.028 248.025 394.788 247.93C395.555 247.863 396.323 248.041 396.984 248.438C397.644 248.834 398.162 249.428 398.465 250.135C403.495 258.767 408.674 267.314 414.184 276.521V248.153H441.892Z" fill="#FAB44B"/>
<path d="M286.949 320.756C277.678 320.862 269.066 318.625 261.607 312.998C253.913 307.169 248.819 299.656 247.252 289.874C245.248 276.991 248.915 266.057 258.441 257.213C264.57 251.543 271.934 248.474 280.225 247.259C291.948 245.544 302.605 248.006 312.11 254.985C315.865 257.61 319.044 260.973 321.45 264.871C323.857 268.769 325.441 273.118 326.102 277.651C327.299 284.475 326.527 291.498 323.876 297.898C322.024 302.433 319.247 306.531 315.722 309.933C312.196 313.335 308.002 315.965 303.404 317.655C298.267 319.648 292.618 320.34 287.205 321.619L286.949 320.756ZM297.01 284.237C297.084 277.779 292.395 273.996 286.725 273.452C281.397 272.952 276.335 278.685 276.26 284.449C276.271 287.229 277.38 289.89 279.343 291.855C281.307 293.822 283.968 294.932 286.747 294.946C292.448 294.925 297.553 289.927 297.01 284.269V284.237Z" fill="#FAB44B"/>
<path d="M55.4161 280.772C61.1282 283.105 65.5402 286.804 66.542 292.717C68.3003 303.139 66.3714 312.208 53.5084 316.438C47.7901 318.221 41.8577 319.224 35.8712 319.423C25.6299 319.891 15.3566 319.55 5.09385 319.55H1.74756V248.153C2.58946 248.089 3.43136 247.982 4.27326 247.982C14.7278 247.982 25.2036 247.61 35.6368 248.1C43.5015 248.462 51.2918 249.539 58.5279 253.513C67.501 258.436 67.3412 275.572 57.3024 279.611C56.6481 279.955 56.0179 280.343 55.4161 280.772ZM30.6492 290.767V301.04C37.0434 301.499 40.2405 299.591 40.1233 295.765C40.006 291.94 36.6172 290.182 30.6066 290.767H30.6492ZM30.7665 276.914C33.9636 277.117 36.9475 277.031 38.2264 273.93C38.5077 273.204 38.6295 272.425 38.5835 271.648C38.5375 270.87 38.3249 270.112 37.9599 269.423C36.2868 267.079 33.4946 266.972 30.7346 266.993L30.7665 276.914Z" fill="#FAB44B"/>
<path d="M242.542 278.407C235.956 274.422 229.221 273.569 222.23 273.975C219.555 274.174 217.023 275.258 215.031 277.054C213.037 278.849 211.698 281.256 211.222 283.895C210.699 287.806 215.154 293.006 220.014 294.104C227.325 295.745 234.251 294.402 240.944 291.323C241.37 291.12 241.849 291.013 242.542 290.779C242.542 299.229 242.542 307.477 242.468 315.736C242.37 316.164 242.172 316.563 241.891 316.901C241.61 317.238 241.252 317.504 240.848 317.676C227.782 321.938 214.685 322.524 201.992 316.609C191.165 311.537 183.939 302.949 181.745 291.184C178.217 272.418 188.138 254.953 207.759 249.018C218.308 245.821 228.614 246.364 238.994 249.209C241.211 249.817 242.756 250.882 242.649 253.898C242.361 261.847 242.542 269.84 242.542 278.407Z" fill="#FAB44B"/>
<path d="M128.395 272.736H108.914V248.163H177.8V272.8H158.618V319.379H128.395V272.736Z" fill="#FAB44B"/>
<path d="M329.172 180.454C335.812 180.454 342.216 180.379 348.611 180.538C349.14 180.644 349.639 180.859 350.079 181.172C350.518 181.484 350.885 181.886 351.157 182.351C354.686 188.105 358.064 193.956 361.495 199.773C361.708 200.147 361.954 200.508 362.624 201.563V180.666H383.843V236.079C377.449 236.079 371.204 236.165 364.937 235.983C364.106 235.983 363.094 234.726 362.539 233.852C358.553 227.299 354.664 220.692 350.337 213.424V235.887H329.172V180.454Z" fill="#FAB44B"/>
<path d="M154.526 179.792C166.686 179.962 176.426 184.672 182.234 195.691C184.595 200.122 185.665 205.127 185.322 210.137C184.98 215.146 183.237 219.958 180.294 224.026C170.575 238.114 150.455 240.49 136.548 231.848C133.034 229.668 130.053 226.73 127.823 223.248C125.593 219.767 124.17 215.83 123.659 211.728C123.148 207.625 123.562 203.46 124.871 199.539C126.178 195.617 128.347 192.038 131.219 189.062C134.22 185.948 137.852 183.509 141.871 181.911C145.891 180.313 150.205 179.589 154.526 179.792ZM162.06 208.415C162.096 207.371 161.916 206.332 161.532 205.361C161.148 204.39 160.568 203.509 159.828 202.774C159.087 202.037 158.203 201.462 157.231 201.083C156.257 200.703 155.218 200.53 154.174 200.571C150.028 200.571 146.085 204.514 146.085 208.563C146.085 212.614 150.124 216.588 154.473 216.556C158.82 216.524 162.06 213.125 162.039 208.415H162.06Z" fill="#FAB44B"/>
<path d="M66.2646 235.503V181.007C75.3977 181.007 84.3815 181.007 93.408 181.007C98.9563 181.08 104.36 182.785 108.946 185.909C115.521 190.246 119.72 196.117 120.668 204.376C121.82 213.828 119.219 221.597 112.335 227.97C107.666 232.305 101.643 234.896 95.2836 235.301C85.799 235.962 76.1544 235.503 66.2646 235.503ZM89.3157 217.175C93.2588 217.292 96.2747 216.109 98.129 212.816C99.0379 211.422 99.4867 209.777 99.4121 208.113C99.3376 206.451 98.7434 204.853 97.7134 203.545C96.8036 202.217 95.5202 201.187 94.0254 200.587C92.5306 199.989 90.8916 199.846 89.3157 200.177V217.175Z" fill="#FAB44B"/>
<path d="M423.178 216.525H418.563V204.301H442.009C442.009 213.157 442.009 221.905 441.945 230.655C441.872 231.001 441.723 231.326 441.51 231.609C441.295 231.89 441.022 232.121 440.708 232.286C432.385 236.547 423.593 237.401 414.407 236.228C407.33 235.323 401.161 232.775 396.099 227.703C391.768 223.175 389.089 217.32 388.496 211.082C387.901 204.845 389.427 198.589 392.827 193.326C394.934 190.049 397.696 187.243 400.941 185.087C404.185 182.93 407.842 181.469 411.679 180.794C421.271 178.897 430.616 179.153 439.579 183.405C440.01 183.61 440.391 183.907 440.695 184.275C440.999 184.644 441.218 185.074 441.337 185.537C441.475 191.248 441.412 196.96 441.412 202.714C437.351 201.648 433.514 200.327 429.572 199.698C425.309 199.006 420.823 198.633 416.677 200.764C414.624 201.765 412.995 203.467 412.084 205.563C411.174 207.658 411.041 210.01 411.711 212.195C412.38 214.378 413.808 216.252 415.736 217.478C417.665 218.704 419.967 219.2 422.23 218.879C422.858 218.795 423.359 217.888 423.924 217.356C423.689 217.068 423.433 216.79 423.178 216.525Z" fill="#FAB44B"/>
<path d="M0 236.091C1.0657 233.075 1.87562 230.539 2.81344 228.035C8.49716 212.782 14.2199 197.55 19.9819 182.341C20.1947 181.879 20.5146 181.475 20.915 181.162C21.3152 180.848 21.7845 180.635 22.2837 180.539C29.2747 180.391 36.2764 180.455 43.3526 180.455C50.1944 198.933 57.0041 217.325 63.9419 236.08C55.9278 236.08 48.2761 236.08 40.6137 236.016C40.0382 236.016 39.1964 235.121 38.9619 234.472C38.3544 232.755 38.0134 230.955 37.5445 229.143H24.8947C24.5147 230.876 24.0306 232.583 23.4453 234.258C23.1256 235.015 22.1239 235.995 21.4098 236.006C14.5148 236.144 7.6304 236.091 0 236.091ZM28.5926 215.151H34.1023C33.2178 211.667 32.3972 208.428 31.4274 204.633L28.5926 215.151Z" fill="#FAB44B"/>
<path d="M332.092 248.078H361.931V319.359H332.092V248.078Z" fill="#FAB44B"/>
<path d="M212.298 222.717V235.931H189.503V180.582C190.345 180.582 191.293 180.443 192.241 180.465C200.874 180.646 209.505 180.795 218.138 181.062C227.26 181.338 236.617 187.882 238.205 195.586C240.688 207.628 236.169 217.964 222.156 221.236C219.054 221.96 215.857 222.205 212.298 222.717ZM212.479 197.782V206.306C214.696 206.882 216.625 206.253 217.466 204.356C218.031 202.896 218.031 201.277 217.466 199.817C216.678 197.866 214.728 197.28 212.479 197.792V197.782Z" fill="#FAB44B"/>
<path d="M72.7871 319.345V248.087H102.019V319.345H72.7871Z" fill="#FAB44B"/>
<path d="M295.038 199.988H279.99V235.877H256.832V200.084H241.594V180.656H295.038V199.988Z" fill="#FAB44B"/>
<path d="M322.906 180.666V235.919H300.207V180.666H322.906Z" fill="#FAB44B"/>
<path d="M219.534 0C219.139 8.20534 218.735 16.3468 218.319 24.8291L233.239 24.1152L233.644 24.9677L204.977 66.2394V37.4674H191.826C192.156 34.2919 216.752 0.532813 219.534 0Z" fill="#FAB44B"/>
<path d="M175.841 44.2988L185.762 42.9774L169.947 70.9502L169.255 70.8863C168.934 65.0359 168.615 59.1643 168.285 53.1755L159.759 54.3796C160.558 50.1171 172.824 29.6677 174.903 29.0283C175.169 34.1007 175.489 39.1092 175.841 44.2988Z" fill="#FAB44B"/>
<path d="M233.803 50.2122C242.266 40.0355 242.436 40.206 252.719 28.4414C252.017 33.7696 251.345 38.8953 250.674 43.9676C253.103 44.3192 255.117 44.543 257.068 44.9373C258.592 45.2463 258.975 46.2054 257.963 47.4735C253.764 52.6951 249.534 57.8954 245.323 63.1063C243.981 64.758 242.681 66.4523 241.295 68.0721C240.797 68.563 240.251 69.0022 239.664 69.3828L238.941 69.0205L241.998 51.15L233.803 50.2122Z" fill="#FAB44B"/>
<path d="M478.949 320.639C476.5 320.639 474.304 320.076 472.36 318.951C470.416 317.801 468.904 316.257 467.823 314.318C466.719 312.354 466.168 310.211 466.168 307.888C466.168 305.231 466.828 302.873 468.148 300.813C469.443 298.73 471.292 297.222 473.692 296.287V301.208C472.372 301.854 471.388 302.752 470.74 303.902C470.092 305.051 469.768 306.38 469.768 307.888C469.768 309.541 470.14 311.013 470.884 312.306C471.628 313.599 472.697 314.616 474.088 315.359C475.48 316.077 477.1 316.436 478.949 316.436C480.797 316.436 482.417 316.077 483.809 315.359C485.201 314.616 486.281 313.599 487.049 312.306C487.794 311.013 488.165 309.541 488.165 307.888C488.165 306.38 487.841 305.051 487.194 303.902C486.545 302.752 485.562 301.854 484.241 301.208V296.287C486.641 297.222 488.489 298.73 489.785 300.813C491.081 302.873 491.73 305.231 491.73 307.888C491.73 310.235 491.19 312.378 490.11 314.318C489.005 316.257 487.481 317.801 485.537 318.951C483.594 320.076 481.397 320.639 478.949 320.639ZM486.401 261.001V271.452L491.513 273.248V277.522L466.455 268.579V263.838L491.513 254.896V259.205L486.401 261.001ZM483.053 262.15L471.424 266.208L483.053 270.304V262.15ZM473.944 218.107C475.216 218.107 476.416 218.405 477.544 219.004C478.673 219.603 479.597 220.561 480.317 221.878C481.013 223.194 481.361 224.882 481.361 226.941V231.468H491.513V235.562H466.492V226.941C466.492 225.026 466.828 223.41 467.5 222.093C468.148 220.752 469.036 219.758 470.164 219.112C471.292 218.442 472.552 218.107 473.944 218.107ZM478.013 226.941C478.013 225.386 477.665 224.224 476.969 223.458C476.248 222.691 475.24 222.309 473.944 222.309C471.208 222.309 469.84 223.853 469.84 226.941V231.468H478.013V226.941ZM469.804 194.662H477.149V186.041H480.497V194.662H488.165V184.964H491.513V198.756H466.455V184.964H469.804V194.662Z" fill="white"/>
<path d="M509.695 303.147H513.043V309.792H534.716V313.886H513.043V320.567H509.695V303.147ZM534.968 277.557C534.968 279.88 534.428 282.023 533.348 283.986C532.244 285.926 530.719 287.471 528.775 288.62C526.807 289.745 524.599 290.307 522.151 290.307C519.703 290.307 517.506 289.745 515.562 288.62C513.619 287.471 512.106 285.926 511.026 283.986C509.922 282.023 509.37 279.88 509.37 277.557C509.37 275.211 509.922 273.068 511.026 271.128C512.106 269.165 513.619 267.62 515.562 266.496C517.506 265.37 519.703 264.807 522.151 264.807C524.599 264.807 526.807 265.37 528.775 266.496C530.719 267.62 532.244 269.165 533.348 271.128C534.428 273.068 534.968 275.211 534.968 277.557ZM531.404 277.557C531.404 275.906 531.032 274.433 530.288 273.14C529.519 271.847 528.439 270.841 527.047 270.123C525.632 269.381 523.999 269.009 522.151 269.009C520.303 269.009 518.683 269.381 517.291 270.123C515.898 270.841 514.831 271.847 514.086 273.14C513.342 274.433 512.97 275.906 512.97 277.557C512.97 279.21 513.342 280.682 514.086 281.975C514.831 283.269 515.898 284.286 517.291 285.028C518.683 285.747 520.303 286.105 522.151 286.105C523.999 286.105 525.632 285.747 527.047 285.028C528.439 284.286 529.519 283.269 530.288 281.975C531.032 280.682 531.404 279.21 531.404 277.557ZM509.695 218.217L534.716 225.615V230.248L515.779 235.492L534.716 241.059L534.752 245.656L509.695 252.731V248.386L530.072 243.214L509.695 237.611V233.014L529.963 227.806L509.695 222.599V218.217ZM534.716 184.273V188.368L516.031 200.688H534.716V204.782H509.658V200.688L528.308 188.368H509.658V184.273H534.716Z" fill="white"/>
</svg>
