<?xml version="1.0" encoding="utf-8"?>
<!-- Generator: Adobe Illustrator 23.0.6, SVG Export Plug-In . SVG Version: 6.00 Build 0)  -->
<!DOCTYPE svg PUBLIC "-//W3C//DTD SVG 1.1//EN" "http://www.w3.org/Graphics/SVG/1.1/DTD/svg11.dtd" [
	<!ENTITY ns_extend "http://ns.adobe.com/Extensibility/1.0/">
	<!ENTITY ns_ai "http://ns.adobe.com/AdobeIllustrator/10.0/">
	<!ENTITY ns_graphs "http://ns.adobe.com/Graphs/1.0/">
	<!ENTITY ns_vars "http://ns.adobe.com/Variables/1.0/">
	<!ENTITY ns_imrep "http://ns.adobe.com/ImageReplacement/1.0/">
	<!ENTITY ns_sfw "http://ns.adobe.com/SaveForWeb/1.0/">
	<!ENTITY ns_custom "http://ns.adobe.com/GenericCustomNamespace/1.0/">
	<!ENTITY ns_adobe_xpath "http://ns.adobe.com/XPath/1.0/">
]>
<svg version="1.1" id="Layer_1" xmlns:x="&ns_extend;" xmlns:i="&ns_ai;" xmlns:graph="&ns_graphs;"
	 xmlns="http://www.w3.org/2000/svg" xmlns:xlink="http://www.w3.org/1999/xlink" x="0px" y="0px" width="535.1px" height="214px"
	 viewBox="0 0 535.1 214" style="enable-background:new 0 0 535.1 214;" xml:space="preserve">
<style type="text/css">
	.st0{fill:#FAB44B;}
	.st1{fill:none;stroke:#000000;stroke-width:8;stroke-miterlimit:10;}
	.st2{fill:#201E1F;}
	.st3{fill:#1B191A;}
	.st4{fill:#FFFFFF;}
</style>
<metadata>
	<sfw  xmlns="&ns_sfw;">
		<slices></slices>
		<sliceSourceBounds  bottomLeftOrigin="true" height="8344.8" width="3922.6" x="-806.6" y="-8667.7"></sliceSourceBounds>
		<optimizationSettings>
			<targetSettings  fileFormat="PNG24Format" targetSettingsID="0">
				<PNG24Format  filtered="false" interlaced="false" matteColor="#FFFFFF" noMatteColor="false" transparency="true">
					</PNG24Format>
			</targetSettings>
		</optimizationSettings>
	</sfw>
</metadata>
<g>
	<path class="st0" d="M131.9,198.7V15.3c-8.1-0.2-14.5-6.8-14.5-14.9c0-0.1,0-0.3,0-0.4H15.3c0,0.1,0,0.3,0,0.4
		c0,8.2-6.7,14.9-14.9,14.9c-0.1,0-0.3,0-0.4,0v183.4c0.1,0,0.3,0,0.4,0c8.2,0,14.9,6.7,14.9,14.9c0,0.1,0,0.3,0,0.4h102.1
		c0-0.1,0-0.3,0-0.4C117.4,205.5,123.8,198.9,131.9,198.7z"/>
	<path class="st3" d="M520.5,0.4c0-0.1,0-0.3,0-0.4H147.2c0,0.1,0,0.3,0,0.4c0,8.2-6.7,14.9-14.9,14.9s-14.9-6.7-14.9-14.9
		c0-0.1,0-0.3,0-0.4H15.3c0,0.1,0,0.3,0,0.4c0,8.2-6.7,14.9-14.9,14.9c-0.1,0-0.3,0-0.4,0v183.4c0.1,0,0.3,0,0.4,0
		c8.2,0,14.9,6.7,14.9,14.9c0,0.1,0,0.3,0,0.4h102.1c0-0.1,0-0.3,0-0.4c0-8.2,6.7-14.9,14.9-14.9s14.9,6.7,14.9,14.9
		c0,0.1,0,0.3,0,0.4h373.3c0-0.1,0-0.3,0-0.4c0-8.1,6.5-14.7,14.5-14.9V15.3C527,15.1,520.5,8.5,520.5,0.4z"/>
	<g>
		<path class="st4" d="M239.9,59v23.4h-6.5V69.5L229,82.4h-5.4l-4.4-13v13h-6.5V59h7.9l5.9,15.2l5.7-15.2H239.9z"/>
		<path class="st4" d="M250.1,77.1h9.7v5.3h-17v-4.9l9.6-13.2h-9.6V59h17v4.9L250.1,77.1z"/>
		<path class="st4" d="M277.5,78.6h-8.3l-1.3,3.8h-6.8l8.5-23.4h7.5l8.5,23.4h-6.9L277.5,78.6z M275.8,73.6l-2.5-7.6l-2.5,7.6H275.8
			z"/>
		<path class="st4" d="M308.7,82.4h-6.5l-8.7-13.1v13.1h-6.5V59h6.5l8.7,13.2V59h6.5V82.4z"/>
		<path class="st4" d="M313.9,80.7c-1.7-1.3-2.7-3.1-2.8-5.6h6.9c0.1,0.8,0.3,1.4,0.7,1.8c0.4,0.4,1,0.6,1.6,0.6
			c0.6,0,1.1-0.1,1.5-0.4c0.4-0.3,0.6-0.7,0.6-1.2c0-0.7-0.3-1.2-1-1.6c-0.6-0.4-1.7-0.8-3.1-1.3c-1.5-0.5-2.8-1-3.7-1.5
			c-0.9-0.5-1.8-1.2-2.5-2.1c-0.7-0.9-1-2.1-1-3.6c0-1.5,0.4-2.8,1.1-3.9s1.8-1.9,3.1-2.4c1.3-0.6,2.8-0.8,4.5-0.8
			c2.7,0,4.9,0.6,6.5,1.9c1.6,1.3,2.5,3.1,2.6,5.4H322c0-0.7-0.2-1.2-0.6-1.6c-0.4-0.4-0.9-0.5-1.6-0.5c-0.5,0-0.9,0.1-1.2,0.4
			c-0.3,0.3-0.5,0.7-0.5,1.2c0,0.4,0.2,0.8,0.5,1.1c0.3,0.3,0.8,0.6,1.3,0.8s1.3,0.5,2.3,0.9c1.5,0.5,2.7,1,3.7,1.5
			c1,0.5,1.8,1.2,2.5,2.1c0.7,0.9,1,2,1,3.4c0,1.4-0.3,2.6-1,3.7c-0.7,1.1-1.7,2-3,2.6c-1.3,0.6-2.9,1-4.7,1
			C317.9,82.6,315.6,82,313.9,80.7z"/>
		<path class="st4" d="M338.2,59v23.4h-6.5V59H338.2z"/>
		<path class="st4" d="M364.5,59v5.2h-6.2v18.2h-6.5V64.2h-6.2V59H364.5z"/>
		<path class="st4" d="M372.8,59v23.4h-6.5V59H372.8z"/>
		<path class="st4" d="M376.5,64.5c1-1.8,2.3-3.2,4.1-4.2c1.8-1,3.8-1.5,6.1-1.5c2.9,0,5.4,0.8,7.4,2.3s3.3,3.7,3.8,6.4h-7
			c-0.4-0.9-1-1.6-1.7-2c-0.7-0.5-1.6-0.7-2.6-0.7c-1.5,0-2.7,0.5-3.6,1.6c-0.9,1.1-1.3,2.5-1.3,4.3c0,1.8,0.4,3.3,1.3,4.3
			c0.9,1.1,2.1,1.6,3.6,1.6c1,0,1.8-0.2,2.6-0.7c0.7-0.5,1.3-1.1,1.7-2h7c-0.6,2.7-1.9,4.8-3.8,6.4s-4.4,2.3-7.4,2.3
			c-2.3,0-4.3-0.5-6.1-1.5c-1.8-1-3.1-2.4-4.1-4.2c-1-1.8-1.4-3.9-1.4-6.2C375.1,68.3,375.5,66.3,376.5,64.5z"/>
		<path class="st4" d="M414.2,82.4l-7.3-10.3v10.3h-6.5V59h6.5v10.1l7.3-10.1h7.5L413,70.3l9,12H414.2z"/>
		<path class="st4" d="M430.3,64.2V68h7.5V73h-7.5v4.2h8.5v5.2h-15V59h15v5.2H430.3z"/>
		<path class="st4" d="M458.9,59v5.2h-6.2v18.2h-6.5V64.2H440V59H458.9z"/>
	</g>
	<g>
		<g>
			<path class="st0" d="M180.9,29.3h-4.8l-0.9,2.4h-1.5l4-10.9h1.7l4,10.9h-1.5L180.9,29.3z M180.4,28.2l-2-5.5l-2,5.5H180.4z"/>
			<path class="st0" d="M195,21.5c0.9,0.4,1.5,1.1,2,1.9c0.5,0.8,0.7,1.8,0.7,2.9c0,1.1-0.2,2.1-0.7,2.9c-0.5,0.8-1.1,1.5-2,1.9
				c-0.9,0.4-1.9,0.7-3.1,0.7h-3.4v-11h3.4C193.1,20.8,194.1,21,195,21.5z M195.1,29.5c0.7-0.8,1.1-1.8,1.1-3.2
				c0-1.4-0.4-2.4-1.1-3.2c-0.8-0.8-1.8-1.2-3.2-1.2h-2v8.6h2C193.3,30.6,194.4,30.2,195.1,29.5z"/>
			<path class="st0" d="M205.3,31.2c-0.8-0.5-1.5-1.1-2-2c-0.5-0.9-0.7-1.8-0.7-2.9c0-1.1,0.2-2,0.7-2.9c0.5-0.9,1.2-1.5,2-2
				c0.8-0.5,1.8-0.7,2.8-0.7c1,0,2,0.2,2.8,0.7c0.8,0.5,1.5,1.1,2,2c0.5,0.9,0.7,1.8,0.7,2.9c0,1.1-0.2,2-0.7,2.9s-1.1,1.5-2,2
				c-0.8,0.5-1.8,0.7-2.8,0.7C207,31.9,206.1,31.7,205.3,31.2z M210.1,30.1c0.6-0.4,1.1-0.9,1.5-1.5c0.4-0.7,0.5-1.4,0.5-2.3
				c0-0.9-0.2-1.7-0.5-2.3c-0.4-0.7-0.8-1.2-1.4-1.5c-0.6-0.4-1.3-0.5-2.1-0.5c-0.8,0-1.5,0.2-2.1,0.5c-0.6,0.4-1.1,0.9-1.4,1.5
				c-0.4,0.7-0.5,1.4-0.5,2.3c0,0.9,0.2,1.6,0.5,2.3c0.4,0.7,0.8,1.2,1.5,1.5c0.6,0.4,1.3,0.5,2.1,0.5
				C208.8,30.7,209.5,30.5,210.1,30.1z"/>
			<path class="st0" d="M225.3,26.3c-0.6,0.6-1.6,0.9-2.9,0.9h-2.1v4.6h-1.4v-11h3.5c1.2,0,2.2,0.3,2.8,0.9c0.6,0.6,1,1.4,1,2.3
				C226.3,24.9,226,25.7,225.3,26.3z M224.2,25.5c0.4-0.3,0.6-0.8,0.6-1.5c0-1.4-0.8-2-2.3-2h-2.1v4h2.1
				C223.3,26,223.9,25.8,224.2,25.5z"/>
			<path class="st0" d="M238.3,20.8V22h-3v9.8h-1.4V22h-3v-1.2H238.3z"/>
			<path class="st0" d="M244.9,20.8v11h-1.4v-11H244.9z"/>
			<path class="st0" d="M259.5,31.8h-1.4l-5.8-8.7v8.7h-1.4v-11h1.4l5.8,8.7v-8.7h1.4V31.8z"/>
			<path class="st0" d="M273.7,24c-0.3-0.6-0.7-1.1-1.3-1.5c-0.6-0.4-1.3-0.5-2-0.5s-1.5,0.2-2.1,0.5c-0.6,0.4-1.1,0.9-1.5,1.5
				c-0.4,0.7-0.5,1.4-0.5,2.3c0,0.9,0.2,1.6,0.5,2.3c0.4,0.7,0.8,1.2,1.5,1.5c0.6,0.4,1.3,0.5,2.1,0.5c1.1,0,2-0.3,2.6-1
				c0.7-0.6,1.1-1.5,1.2-2.6h-4.4v-1.2h5.9V27c-0.1,0.9-0.4,1.7-0.9,2.5c-0.5,0.8-1.1,1.3-1.9,1.8c-0.8,0.4-1.7,0.7-2.6,0.7
				c-1,0-1.9-0.2-2.8-0.7c-0.8-0.5-1.5-1.1-2-2c-0.5-0.9-0.7-1.8-0.7-2.9c0-1.1,0.2-2,0.7-2.9c0.5-0.9,1.2-1.5,2-2
				c0.8-0.5,1.8-0.7,2.8-0.7c1.2,0,2.2,0.3,3.1,0.9c0.9,0.6,1.6,1.4,2,2.4H273.7z"/>
			<path class="st0" d="M295.4,26.6c0.3,0.3,0.6,0.6,0.8,1s0.3,0.8,0.3,1.2c0,0.6-0.1,1.1-0.4,1.5c-0.3,0.4-0.7,0.8-1.2,1.1
				c-0.5,0.3-1.2,0.4-1.9,0.4h-4.1v-11h3.9c0.7,0,1.4,0.1,1.9,0.4s0.9,0.6,1.2,1s0.4,0.9,0.4,1.4c0,0.7-0.2,1.2-0.5,1.6
				c-0.4,0.4-0.8,0.7-1.4,0.9C294.7,26.2,295.1,26.4,295.4,26.6z M290.2,25.5h2.4c0.7,0,1.2-0.2,1.6-0.5c0.4-0.3,0.6-0.8,0.6-1.3
				s-0.2-1-0.6-1.3c-0.4-0.3-0.9-0.5-1.6-0.5h-2.4V25.5z M294.4,30.1c0.4-0.3,0.6-0.8,0.6-1.4c0-0.6-0.2-1.1-0.6-1.4
				c-0.4-0.4-1-0.5-1.7-0.5h-2.5v3.9h2.5C293.5,30.6,294.1,30.4,294.4,30.1z"/>
			<path class="st0" d="M303.4,20.8v11h-1.4v-11H303.4z"/>
			<path class="st0" d="M316,20.8V22h-3v9.8h-1.4V22h-3v-1.2H316z"/>
			<path class="st0" d="M321.5,23.4c0.5-0.9,1.1-1.5,2-2c0.8-0.5,1.8-0.7,2.8-0.7c1.2,0,2.2,0.3,3.1,0.9c0.9,0.6,1.5,1.4,2,2.5h-1.7
				c-0.3-0.7-0.7-1.2-1.3-1.5c-0.6-0.4-1.3-0.5-2.1-0.5c-0.8,0-1.5,0.2-2.1,0.5c-0.6,0.4-1.1,0.9-1.4,1.5s-0.5,1.4-0.5,2.3
				c0,0.9,0.2,1.6,0.5,2.3c0.3,0.7,0.8,1.2,1.4,1.5c0.6,0.4,1.3,0.5,2.1,0.5c0.8,0,1.5-0.2,2.1-0.5c0.6-0.4,1-0.9,1.3-1.5h1.7
				c-0.4,1.1-1.1,1.9-2,2.4c-0.9,0.6-1.9,0.9-3.1,0.9c-1,0-1.9-0.2-2.8-0.7c-0.8-0.5-1.5-1.1-2-2c-0.5-0.9-0.7-1.8-0.7-2.9
				C320.7,25.2,321,24.2,321.5,23.4z"/>
			<path class="st0" d="M339.1,31.2c-0.8-0.5-1.5-1.1-2-2c-0.5-0.9-0.7-1.8-0.7-2.9c0-1.1,0.2-2,0.7-2.9c0.5-0.9,1.2-1.5,2-2
				c0.8-0.5,1.8-0.7,2.8-0.7c1,0,2,0.2,2.8,0.7c0.8,0.5,1.5,1.1,2,2c0.5,0.9,0.7,1.8,0.7,2.9c0,1.1-0.2,2-0.7,2.9s-1.1,1.5-2,2
				c-0.8,0.5-1.8,0.7-2.8,0.7C340.9,31.9,339.9,31.7,339.1,31.2z M344,30.1c0.6-0.4,1.1-0.9,1.5-1.5c0.4-0.7,0.5-1.4,0.5-2.3
				c0-0.9-0.2-1.7-0.5-2.3c-0.4-0.7-0.8-1.2-1.4-1.5c-0.6-0.4-1.3-0.5-2.1-0.5c-0.8,0-1.5,0.2-2.1,0.5c-0.6,0.4-1.1,0.9-1.4,1.5
				c-0.4,0.7-0.5,1.4-0.5,2.3c0,0.9,0.2,1.6,0.5,2.3c0.4,0.7,0.8,1.2,1.5,1.5c0.6,0.4,1.3,0.5,2.1,0.5
				C342.7,30.7,343.3,30.5,344,30.1z"/>
			<path class="st0" d="M354.2,20.8v11h-1.4v-11H354.2z"/>
			<path class="st0" d="M368.7,31.8h-1.4l-5.8-8.7v8.7h-1.4v-11h1.4l5.8,8.7v-8.7h1.4V31.8z"/>
			<path class="st0" d="M382.5,23.4c0.5-0.9,1.1-1.5,2-2c0.8-0.5,1.8-0.7,2.8-0.7c1.2,0,2.2,0.3,3.1,0.9c0.9,0.6,1.5,1.4,2,2.5h-1.7
				c-0.3-0.7-0.7-1.2-1.3-1.5c-0.6-0.4-1.3-0.5-2.1-0.5c-0.8,0-1.5,0.2-2.1,0.5c-0.6,0.4-1.1,0.9-1.4,1.5s-0.5,1.4-0.5,2.3
				c0,0.9,0.2,1.6,0.5,2.3c0.3,0.7,0.8,1.2,1.4,1.5c0.6,0.4,1.3,0.5,2.1,0.5c0.8,0,1.5-0.2,2.1-0.5c0.6-0.4,1-0.9,1.3-1.5h1.7
				c-0.4,1.1-1.1,1.9-2,2.4c-0.9,0.6-1.9,0.9-3.1,0.9c-1,0-1.9-0.2-2.8-0.7c-0.8-0.5-1.5-1.1-2-2c-0.5-0.9-0.7-1.8-0.7-2.9
				C381.8,25.2,382,24.2,382.5,23.4z"/>
			<path class="st0" d="M404.5,29.3h-4.8l-0.9,2.4h-1.5l4-10.9h1.7l4,10.9h-1.5L404.5,29.3z M404.1,28.2l-2-5.5l-2,5.5H404.1z"/>
			<path class="st0" d="M418.5,26.3c-0.6,0.6-1.6,0.9-2.9,0.9h-2.1v4.6h-1.4v-11h3.5c1.2,0,2.2,0.3,2.8,0.9c0.6,0.6,1,1.4,1,2.3
				C419.4,24.9,419.1,25.7,418.5,26.3z M417.4,25.5c0.4-0.3,0.6-0.8,0.6-1.5c0-1.4-0.8-2-2.3-2h-2.1v4h2.1
				C416.4,26,417,25.8,417.4,25.5z"/>
			<path class="st0" d="M426.1,22v3.7h4v1.2h-4v3.8h4.5v1.2h-5.9v-11h5.9V22H426.1z"/>
			<path class="st0" d="M450.6,20.8V22h-3v9.8h-1.4V22h-3v-1.2H450.6z"/>
			<path class="st0" d="M458.1,31.2c-0.8-0.5-1.5-1.1-2-2c-0.5-0.9-0.7-1.8-0.7-2.9c0-1.1,0.2-2,0.7-2.9c0.5-0.9,1.2-1.5,2-2
				c0.8-0.5,1.8-0.7,2.8-0.7c1,0,2,0.2,2.8,0.7c0.8,0.5,1.5,1.1,2,2c0.5,0.9,0.7,1.8,0.7,2.9c0,1.1-0.2,2-0.7,2.9s-1.1,1.5-2,2
				c-0.8,0.5-1.8,0.7-2.8,0.7C459.8,31.9,458.9,31.7,458.1,31.2z M462.9,30.1c0.6-0.4,1.1-0.9,1.5-1.5c0.4-0.7,0.5-1.4,0.5-2.3
				c0-0.9-0.2-1.7-0.5-2.3c-0.4-0.7-0.8-1.2-1.4-1.5c-0.6-0.4-1.3-0.5-2.1-0.5s-1.5,0.2-2.1,0.5c-0.6,0.4-1.1,0.9-1.4,1.5
				c-0.4,0.7-0.5,1.4-0.5,2.3c0,0.9,0.2,1.6,0.5,2.3c0.4,0.7,0.8,1.2,1.5,1.5c0.6,0.4,1.3,0.5,2.1,0.5S462.3,30.5,462.9,30.1z"/>
			<path class="st0" d="M485.5,20.8l-3.2,11h-1.6l-2.6-8.8l-2.6,8.8l-1.6,0l-3.1-11h1.5l2.4,9.3l2.6-9.3h1.6l2.5,9.3l2.4-9.3H485.5z
				"/>
			<path class="st0" d="M499.2,31.8h-1.4L492,23v8.7h-1.4v-11h1.4l5.8,8.7v-8.7h1.4V31.8z"/>
		</g>
	</g>
	<g>
		<path class="st4" d="M211.7,139.2V150c0,1,0.2,1.8,0.7,2.3c0.5,0.5,1.2,0.8,2.1,0.8c1,0,1.7-0.3,2.2-0.8c0.5-0.6,0.7-1.3,0.7-2.3
			v-10.9h5.2V150c0,1.7-0.4,3.2-1.1,4.4c-0.7,1.2-1.7,2.1-3,2.7c-1.2,0.6-2.6,0.9-4.2,0.9c-1.5,0-2.9-0.3-4.1-0.9
			c-1.2-0.6-2.1-1.5-2.8-2.7c-0.7-1.2-1-2.7-1-4.4v-10.9H211.7z"/>
		<path class="st4" d="M242.9,157.9h-5.2l-6.9-10.5v10.5h-5.2v-18.7h5.2l6.9,10.6v-10.6h5.2V157.9z"/>
		<path class="st4" d="M259.9,139.2v4.1h-5v14.6h-5.2v-14.6h-4.9v-4.1H259.9z"/>
		<path class="st4" d="M267.1,139.2v18.7h-5.2v-18.7H267.1z"/>
		<path class="st4" d="M275.3,153.9h5.8v4h-11v-18.7h5.2V153.9z"/>
		<path class="st4" d="M300.6,139.2v12.4c0,2.1-0.6,3.7-1.7,4.8c-1.1,1.1-2.7,1.7-4.7,1.7c-2.1,0-3.8-0.6-5.1-1.8
			c-1.3-1.2-1.9-2.9-1.9-5.1h5.1c0,1.5,0.6,2.2,1.6,2.2c1,0,1.4-0.6,1.4-1.8v-12.4H300.6z"/>
		<path class="st4" d="M315.5,154.8h-6.6l-1,3.1h-5.5l6.8-18.7h6l6.8,18.7h-5.5L315.5,154.8z M314.2,150.8l-2-6.1l-2,6.1H314.2z"/>
		<path class="st4" d="M341,157.9h-5.2l-6.9-10.5v10.5h-5.2v-18.7h5.2l6.9,10.6v-10.6h5.2V157.9z"/>
		<path class="st4" d="M349.1,139.2V150c0,1,0.2,1.8,0.7,2.3c0.5,0.5,1.2,0.8,2.1,0.8s1.7-0.3,2.2-0.8c0.5-0.6,0.7-1.3,0.7-2.3
			v-10.9h5.2V150c0,1.7-0.4,3.2-1.1,4.4s-1.7,2.1-3,2.7c-1.2,0.6-2.6,0.9-4.2,0.9c-1.5,0-2.9-0.3-4.1-0.9c-1.2-0.6-2.1-1.5-2.8-2.7
			c-0.7-1.2-1-2.7-1-4.4v-10.9H349.1z"/>
		<path class="st4" d="M374.7,154.8h-6.6l-1,3.1h-5.5l6.8-18.7h6l6.8,18.7h-5.5L374.7,154.8z M373.4,150.8l-2-6.1l-2,6.1H373.4z"/>
		<path class="st4" d="M392.4,157.9l-3.7-6.9h-0.6v6.9h-5.2v-18.7h8.2c1.5,0,2.8,0.3,3.8,0.8c1,0.5,1.8,1.2,2.4,2.2
			c0.5,0.9,0.8,1.9,0.8,3.1c0,1.3-0.3,2.4-1,3.4c-0.7,1-1.7,1.7-3.1,2.1l4.2,7.3H392.4z M388.2,147.4h2.6c0.7,0,1.2-0.2,1.6-0.5
			c0.4-0.3,0.5-0.8,0.5-1.5c0-0.6-0.2-1.1-0.5-1.4c-0.4-0.3-0.9-0.5-1.6-0.5h-2.6V147.4z"/>
		<path class="st4" d="M417.5,139.2l-6.6,12.8v5.9h-5.2v-5.9l-6.6-12.8h5.9l3.3,7.2l3.3-7.2H417.5z"/>
		<path class="st4" d="M427.8,150.2c1.1-1,2-2,2.8-3s1.1-2,1.1-3c0-0.6-0.1-1-0.4-1.3c-0.3-0.3-0.6-0.5-1.1-0.5
			c-0.5,0-0.9,0.2-1.2,0.7c-0.3,0.4-0.4,1.1-0.4,1.9h-5c0.1-1.6,0.4-2.9,1-3.9c0.6-1,1.5-1.8,2.5-2.3c1-0.5,2.2-0.7,3.4-0.7
			c2.2,0,3.8,0.5,4.9,1.6c1.1,1.1,1.6,2.5,1.6,4.2c0,1.8-0.6,3.6-1.8,5.2c-1.2,1.6-2.8,3.1-4.6,4.3h6.6v4.2h-13.5v-3.9
			C425.3,152.4,426.7,151.2,427.8,150.2z"/>
		<path class="st4" d="M452.9,143.1h-8v2.9c0.3-0.4,0.8-0.6,1.4-0.8c0.6-0.2,1.2-0.3,1.9-0.3c1.3,0,2.3,0.3,3.2,0.9s1.5,1.4,1.9,2.3
			c0.4,1,0.6,2,0.6,3.1c0,2.1-0.6,3.7-1.8,4.9s-2.8,1.8-4.9,1.8c-1.5,0-2.7-0.3-3.8-0.8c-1.1-0.5-1.9-1.2-2.5-2.1
			c-0.6-0.9-0.9-1.9-0.9-3.1h5.1c0.1,0.4,0.2,0.8,0.5,1.1c0.3,0.3,0.7,0.5,1.3,0.5c0.6,0,1.1-0.2,1.4-0.6s0.5-1,0.5-1.7
			c0-0.7-0.2-1.2-0.5-1.6c-0.3-0.4-0.8-0.5-1.5-0.5c-0.5,0-0.9,0.1-1.2,0.4c-0.3,0.2-0.5,0.5-0.5,0.9h-5.1v-11.7h12.7V143.1z"/>
	</g>
	<path class="st0" d="M520.5,0.4c0-0.1,0-0.3,0-0.4H147.2c0,0.1,0,0.3,0,0.4c0,8.2-6.7,14.9-14.9,14.9c-8.2,0-14.9-6.7-14.9-14.9
		c0-0.1,0-0.3,0-0.4H15.3c0,0.1,0,0.3,0,0.4c0,8.2-6.7,14.9-14.9,14.9c-0.1,0-0.3,0-0.4,0v183.4c0.1,0,0.3,0,0.4,0
		c8.2,0,14.9,6.7,14.9,14.9c0,0.1,0,0.3,0,0.4h102.1c0-0.1,0-0.3,0-0.4c0-8.2,6.7-14.9,14.9-14.9c8.2,0,14.9,6.7,14.9,14.9
		c0,0.1,0,0.3,0,0.4h373.3c0-0.1,0-0.3,0-0.4c0-8.1,6.5-14.7,14.5-14.9V15.3C527,15.1,520.5,8.5,520.5,0.4z M153,6.6h361.8
		c2,6.7,7.1,11.9,13.6,14.2v88.7H135.2V21.8C143.7,20.6,150.6,14.6,153,6.6z M111.7,207.4H21.1C19,200.5,13.5,195,6.6,193V21.1
		C13.5,19,19,13.5,21.1,6.6h90.6c2.3,7.7,8.9,13.6,16.9,15v170.7C120.5,193.8,114,199.7,111.7,207.4z M514.8,207.4H153
		c-2.4-8-9.3-14-17.7-15.1v-76.1h393.2v77.1C521.8,195.4,516.8,200.7,514.8,207.4z"/>
	<g>
		<g>
			<path class="st4" d="M51.4,55.9l10.1-5.5v-0.8H51.4V42h27.5v12c0,2.2-0.4,4.1-1.2,5.6s-1.8,2.7-3.2,3.5c-1.3,0.8-2.8,1.2-4.5,1.2
				c-1.9,0-3.5-0.5-4.9-1.5c-1.4-1-2.4-2.5-3-4.5l-10.7,6.2V55.9z M66.8,49.6v3.8c0,1,0.2,1.8,0.7,2.3c0.5,0.5,1.2,0.8,2.1,0.8
				c0.9,0,1.6-0.3,2.1-0.8c0.5-0.5,0.8-1.3,0.8-2.3v-3.8H66.8z"/>
			<path class="st4" d="M72.8,73.7h7.2v12H51.4v-8h21.3V73.7z"/>
			<path class="st4" d="M58,98.5l-11.4-4.2v-4.8l11.4,2V98.5z"/>
			<path class="st4" d="M73.7,114.5c0.4-0.4,0.6-1,0.6-1.8c0-1.2-0.6-2.1-1.7-2.6c-1.1-0.5-2.9-0.7-5.4-0.8c0.8,0.5,1.4,1.3,1.9,2.3
				c0.5,1,0.7,2.1,0.7,3.3c0,2.5-0.8,4.5-2.3,6.1c-1.6,1.5-3.8,2.3-6.7,2.3c-1.9,0-3.6-0.4-5-1.2c-1.4-0.8-2.6-1.9-3.3-3.4
				c-0.8-1.5-1.2-3.3-1.2-5.3c0-4,1.3-6.8,3.8-8.4c2.5-1.6,6.1-2.4,10.7-2.4c5.1,0,8.8,0.8,11.2,2.5c2.4,1.7,3.6,4.3,3.6,8
				c0,3-0.8,5.3-2.5,6.8c-1.7,1.5-3.7,2.4-6.2,2.6v-7.1C72.6,115.2,73.3,114.9,73.7,114.5z M63.1,110.7c-0.5-0.6-1.3-0.9-2.2-0.9
				c-1,0-1.8,0.3-2.3,0.8s-0.8,1.3-0.8,2.3c0,0.9,0.3,1.7,0.8,2.2c0.5,0.5,1.3,0.8,2.3,0.8c1,0,1.7-0.3,2.3-0.8
				c0.5-0.5,0.8-1.3,0.8-2.2C63.9,112.1,63.7,111.3,63.1,110.7z"/>
			<path class="st4" d="M76.7,129.3c2.6,1.8,3.9,4.7,3.9,8.6s-1.3,6.8-3.9,8.6c-2.6,1.8-6.1,2.7-10.6,2.7c-4.5,0-8.1-0.9-10.6-2.7
				s-3.9-4.7-3.9-8.6s1.3-6.8,3.9-8.6c2.6-1.8,6.1-2.7,10.6-2.7C70.6,126.6,74.1,127.5,76.7,129.3z M71.5,140.9
				c1.2-0.5,1.9-1.5,1.9-3c0-1.5-0.6-2.5-1.9-3c-1.2-0.5-3-0.7-5.4-0.7c-2.4,0-4.2,0.2-5.4,0.7c-1.2,0.5-1.9,1.5-1.9,3.1
				s0.6,2.6,1.9,3.1c1.2,0.5,3,0.7,5.4,0.7C68.4,141.7,70.2,141.4,71.5,140.9z"/>
			<path class="st4" d="M76.7,154.9c2.6,1.8,3.9,4.7,3.9,8.6s-1.3,6.8-3.9,8.6c-2.6,1.8-6.1,2.7-10.6,2.7c-4.5,0-8.1-0.9-10.6-2.7
				s-3.9-4.7-3.9-8.6s1.3-6.8,3.9-8.6c2.6-1.8,6.1-2.7,10.6-2.7C70.6,152.2,74.1,153.1,76.7,154.9z M71.5,166.6
				c1.2-0.5,1.9-1.5,1.9-3c0-1.5-0.6-2.5-1.9-3c-1.2-0.5-3-0.7-5.4-0.7c-2.4,0-4.2,0.2-5.4,0.7c-1.2,0.5-1.9,1.5-1.9,3.1
				s0.6,2.6,1.9,3.1c1.2,0.5,3,0.7,5.4,0.7C68.4,167.3,70.2,167.1,71.5,166.6z"/>
		</g>
	</g>
	<g>
		<g>
			<path class="st0" d="M209.9,181.2c-0.6,0.6-1.6,0.9-2.9,0.9h-2.1v4.6h-1.4v-11h3.5c1.2,0,2.2,0.3,2.8,0.9c0.6,0.6,1,1.4,1,2.3
				C210.8,179.8,210.5,180.6,209.9,181.2z M208.8,180.4c0.4-0.3,0.6-0.8,0.6-1.5c0-1.4-0.8-2-2.3-2h-2.1v4h2.1
				C207.8,180.9,208.4,180.7,208.8,180.4z"/>
			<path class="st0" d="M222.6,184.2h-4.8l-0.9,2.4h-1.5l4-10.9h1.7l4,10.9h-1.5L222.6,184.2z M222.2,183.1l-2-5.5l-2,5.5H222.2z"/>
			<path class="st0" d="M237.9,175.7l-3.6,6.8v4.1h-1.4v-4.1l-3.6-6.8h1.6l2.7,5.6l2.7-5.6H237.9z"/>
			<path class="st0" d="M249.3,184.2h-4.8l-0.9,2.4h-1.5l4-10.9h1.7l4,10.9h-1.5L249.3,184.2z M248.9,183.1l-2-5.5l-2,5.5H248.9z"/>
			<path class="st0" d="M263.5,181.5c0.3,0.3,0.6,0.6,0.8,1s0.3,0.8,0.3,1.2c0,0.6-0.1,1.1-0.4,1.5c-0.3,0.4-0.7,0.8-1.2,1.1
				c-0.5,0.3-1.2,0.4-1.9,0.4h-4.1v-11h3.9c0.7,0,1.4,0.1,1.9,0.4s0.9,0.6,1.2,1s0.4,0.9,0.4,1.4c0,0.7-0.2,1.2-0.5,1.6
				c-0.4,0.4-0.8,0.7-1.4,0.9C262.8,181.1,263.2,181.2,263.5,181.5z M258.4,180.4h2.4c0.7,0,1.2-0.2,1.6-0.5
				c0.4-0.3,0.6-0.8,0.6-1.3s-0.2-1-0.6-1.3c-0.4-0.3-0.9-0.5-1.6-0.5h-2.4V180.4z M262.6,185c0.4-0.3,0.6-0.8,0.6-1.4
				c0-0.6-0.2-1.1-0.6-1.4c-0.4-0.4-1-0.5-1.7-0.5h-2.5v3.9h2.5C261.6,185.5,262.2,185.3,262.6,185z"/>
			<path class="st0" d="M271.5,185.5h3.8v1.2h-5.3v-11h1.4V185.5z"/>
			<path class="st0" d="M281.8,176.8v3.7h4v1.2h-4v3.8h4.5v1.2h-5.9v-11h5.9v1.2H281.8z"/>
			<path class="st0" d="M301,175.7v11h-1.4v-11H301z"/>
			<path class="st0" d="M315.5,186.7h-1.4l-5.8-8.7v8.7h-1.4v-11h1.4l5.8,8.7v-8.7h1.4V186.7z"/>
			<path class="st0" d="M335.7,181.5c0.3,0.3,0.6,0.6,0.8,1s0.3,0.8,0.3,1.2c0,0.6-0.1,1.1-0.4,1.5c-0.3,0.4-0.7,0.8-1.2,1.1
				c-0.5,0.3-1.2,0.4-1.9,0.4h-4.1v-11h3.9c0.7,0,1.4,0.1,1.9,0.4s0.9,0.6,1.2,1s0.4,0.9,0.4,1.4c0,0.7-0.2,1.2-0.5,1.6
				c-0.4,0.4-0.8,0.7-1.4,0.9C335,181.1,335.4,181.2,335.7,181.5z M330.6,180.4h2.4c0.7,0,1.2-0.2,1.6-0.5c0.4-0.3,0.6-0.8,0.6-1.3
				s-0.2-1-0.6-1.3c-0.4-0.3-0.9-0.5-1.6-0.5h-2.4V180.4z M334.8,185c0.4-0.3,0.6-0.8,0.6-1.4c0-0.6-0.2-1.1-0.6-1.4
				c-0.4-0.4-1-0.5-1.7-0.5h-2.5v3.9h2.5C333.8,185.5,334.4,185.3,334.8,185z"/>
			<path class="st0" d="M343.7,175.7v11h-1.4v-11H343.7z"/>
			<path class="st0" d="M356.4,175.7v1.2h-3v9.8h-1.4v-9.8h-3v-1.2H356.4z"/>
			<path class="st0" d="M361.8,178.3c0.5-0.9,1.1-1.5,2-2c0.8-0.5,1.8-0.7,2.8-0.7c1.2,0,2.2,0.3,3.1,0.9c0.9,0.6,1.5,1.4,2,2.5
				h-1.7c-0.3-0.7-0.7-1.2-1.3-1.5c-0.6-0.4-1.3-0.5-2.1-0.5c-0.8,0-1.5,0.2-2.1,0.5c-0.6,0.4-1.1,0.9-1.4,1.5s-0.5,1.4-0.5,2.3
				c0,0.9,0.2,1.6,0.5,2.3c0.3,0.7,0.8,1.2,1.4,1.5c0.6,0.4,1.3,0.5,2.1,0.5c0.8,0,1.5-0.2,2.1-0.5c0.6-0.4,1-0.9,1.3-1.5h1.7
				c-0.4,1.1-1.1,1.9-2,2.4c-0.9,0.6-1.9,0.9-3.1,0.9c-1,0-1.9-0.2-2.8-0.7c-0.8-0.5-1.5-1.1-2-2c-0.5-0.9-0.7-1.8-0.7-2.9
				C361.1,180.1,361.3,179.1,361.8,178.3z"/>
			<path class="st0" d="M379.4,186.1c-0.8-0.5-1.5-1.1-2-2c-0.5-0.9-0.7-1.8-0.7-2.9c0-1.1,0.2-2,0.7-2.9c0.5-0.9,1.2-1.5,2-2
				c0.8-0.5,1.8-0.7,2.8-0.7c1,0,2,0.2,2.8,0.7c0.8,0.5,1.5,1.1,2,2c0.5,0.9,0.7,1.8,0.7,2.9c0,1.1-0.2,2-0.7,2.9s-1.1,1.5-2,2
				c-0.8,0.5-1.8,0.7-2.8,0.7C381.2,186.8,380.3,186.5,379.4,186.1z M384.3,185c0.6-0.4,1.1-0.9,1.5-1.5c0.4-0.7,0.5-1.4,0.5-2.3
				c0-0.9-0.2-1.7-0.5-2.3c-0.4-0.7-0.8-1.2-1.4-1.5c-0.6-0.4-1.3-0.5-2.1-0.5s-1.5,0.2-2.1,0.5c-0.6,0.4-1.1,0.9-1.4,1.5
				c-0.4,0.7-0.5,1.4-0.5,2.3c0,0.9,0.2,1.6,0.5,2.3c0.4,0.7,0.8,1.2,1.5,1.5c0.6,0.4,1.3,0.5,2.1,0.5S383.7,185.3,384.3,185z"/>
			<path class="st0" d="M394.5,175.7v11h-1.4v-11H394.5z"/>
			<path class="st0" d="M409.1,186.7h-1.4l-5.8-8.7v8.7h-1.4v-11h1.4l5.8,8.7v-8.7h1.4V186.7z"/>
			<path class="st0" d="M424.8,186.1c-0.8-0.5-1.5-1.1-2-2c-0.5-0.9-0.7-1.8-0.7-2.9c0-1.1,0.2-2,0.7-2.9c0.5-0.9,1.2-1.5,2-2
				c0.8-0.5,1.8-0.7,2.8-0.7c1,0,2,0.2,2.8,0.7c0.8,0.5,1.5,1.1,2,2c0.5,0.9,0.7,1.8,0.7,2.9c0,1.1-0.2,2-0.7,2.9s-1.1,1.5-2,2
				c-0.8,0.5-1.8,0.7-2.8,0.7C426.6,186.8,425.7,186.5,424.8,186.1z M429.7,185c0.6-0.4,1.1-0.9,1.5-1.5c0.4-0.7,0.5-1.4,0.5-2.3
				c0-0.9-0.2-1.7-0.5-2.3c-0.4-0.7-0.8-1.2-1.4-1.5c-0.6-0.4-1.3-0.5-2.1-0.5c-0.8,0-1.5,0.2-2.1,0.5c-0.6,0.4-1.1,0.9-1.4,1.5
				c-0.4,0.7-0.5,1.4-0.5,2.3c0,0.9,0.2,1.6,0.5,2.3c0.4,0.7,0.8,1.2,1.5,1.5c0.6,0.4,1.3,0.5,2.1,0.5
				C428.4,185.5,429.1,185.3,429.7,185z"/>
			<path class="st0" d="M447.2,186.7h-1.4l-5.8-8.7v8.7h-1.4v-11h1.4l5.8,8.7v-8.7h1.4V186.7z"/>
			<path class="st0" d="M454.5,185.5h3.8v1.2h-5.3v-11h1.4V185.5z"/>
			<path class="st0" d="M471,175.7l-3.6,6.8v4.1H466v-4.1l-3.6-6.8h1.6l2.7,5.6l2.7-5.6H471z"/>
		</g>
	</g>
</g>
</svg>
